<svg version="1.1" xmlns="http://www.w3.org/2000/svg" xmlns:xlink="http://www.w3.org/1999/xlink" width="671" height="1431"><defs/><g><g transform="translate(5,5) scale(1,1)"><path fill="none" stroke="#000000" d="M 5 5 L 560 5 L 560 1416 L 5 1416 L 5 5" stroke-miterlimit="10"/></g><g transform="translate(5,5) scale(1,1)"><path fill="#ffffff" stroke="none" d="M 5 5 L 5 27 L 155.39892578125 27 L 166.39892578125 16 L 166.39892578125 5 L 5 5"/></g><g transform="translate(5,5) scale(1,1)"><path fill="none" stroke="#000000" d="M 5 5 L 5 27 L 155.39892578125 27 L 166.39892578125 16 L 166.39892578125 5 L 5 5 L 5 5" stroke-miterlimit="10"/></g><g transform="translate(5,5) scale(1,1)"><g><path fill="none" stroke="none"/><text fill="#000000" stroke="none" font-family="Arial" font-size="13px" font-style="normal" font-weight="normal" text-decoration="none" x="75.97900390625" y="22.5">draw surface</text></g></g><g transform="translate(5,5) scale(1,1)"><g><path fill="none" stroke="none"/><text fill="#000000" stroke="none" font-family="Arial" font-size="13px" font-style="normal" font-weight="bold" text-decoration="none" x="10" y="22.5">interaction</text></g></g><g transform="translate(5,5) scale(1,1)"><rect fill="#C0C0C0" stroke="none" x="103" y="47" width="71.736328125" height="39" opacity="0.2"/></g><g transform="translate(5,5) scale(1,1)"><rect fill="#ffffff" stroke="none" x="96" y="40" width="71.736328125" height="39"/></g><g transform="translate(5,5) scale(1,1)"><path fill="none" stroke="#000000" d="M 96 40 L 167.736328125 40 L 167.736328125 79 L 96 79 L 96 40 Z Z" stroke-miterlimit="10"/></g><g transform="translate(5,5) scale(1,1)"><g><path fill="none" stroke="none"/><text fill="#000000" stroke="none" font-family="Arial" font-size="13px" font-style="normal" font-weight="bold" text-decoration="none" x="111.273193359375" y="59.5">weston</text></g></g><g transform="translate(5,5) scale(1,1)"><path fill="none" stroke="#000000" d="M 132.5 80 L 132.5 1402" stroke-miterlimit="10" stroke-dasharray="3"/></g><g transform="translate(5,5) scale(1,1)"><rect fill="#C0C0C0" stroke="none" x="415" y="47" width="87.6181640625" height="39" opacity="0.2"/></g><g transform="translate(5,5) scale(1,1)"><rect fill="#ffffff" stroke="none" x="408" y="40" width="87.6181640625" height="39"/></g><g transform="translate(5,5) scale(1,1)"><path fill="none" stroke="#000000" d="M 408 40 L 495.6181640625 40 L 495.6181640625 79 L 408 79 L 408 40 Z Z" stroke-miterlimit="10"/></g><g transform="translate(5,5) scale(1,1)"><g><path fill="none" stroke="none"/><text fill="#000000" stroke="none" font-family="Arial" font-size="13px" font-style="normal" font-weight="bold" text-decoration="none" x="420.73095703125" y="59.5">application</text></g></g><g transform="translate(5,5) scale(1,1)"><path fill="none" stroke="#000000" d="M 452.5 80 L 452.5 1402" stroke-miterlimit="10" stroke-dasharray="3"/></g><g transform="translate(5,5) scale(1,1)"><path fill="#ffffff" stroke="none" d="M 464 1112 L 645 1112 L 655 1122 L 655 1167 L 464 1167 L 464 1112"/></g><g transform="translate(5,5) scale(1,1)"><path fill="none" stroke="#000000" d="M 464 1112 L 645 1112 L 655 1122 L 655 1167 L 464 1167 L 464 1112 L 464 1112" stroke-miterlimit="10"/></g><g transform="translate(5,5) scale(1,1)"><path fill="none" stroke="#000000" d="M 645 1112 L 645 1122 L 655 1122 L 645 1112" stroke-miterlimit="10"/></g><g transform="translate(5,5) scale(1,1)"><g><path fill="none" stroke="none"/><text fill="#000000" stroke="none" font-family="Arial" font-size="13px" font-style="normal" font-weight="normal" text-decoration="none" x="469" y="1130">Weston would not draw the</text><text fill="#000000" stroke="none" font-family="Arial" font-size="13px" font-style="normal" font-weight="normal" text-decoration="none" x="469" y="1143">surface directly, but wait for a</text><text fill="#000000" stroke="none" font-family="Arial" font-size="13px" font-style="normal" font-weight="normal" text-decoration="none" x="469" y="1156">idle timing.</text></g></g><g transform="translate(5,5) scale(1,1)"><path fill="none" stroke="#000000" d="M 463 1131 L 196 1106" stroke-miterlimit="10" stroke-dasharray="3"/></g><g transform="translate(5,5) scale(1,1)"><path fill="#ffffff" stroke="none" d="M 480 104 L 589 104 L 599 114 L 599 244 L 480 244 L 480 104"/></g><g transform="translate(5,5) scale(1,1)"><path fill="none" stroke="#000000" d="M 480 104 L 589 104 L 599 114 L 599 244 L 480 244 L 480 104 L 480 104" stroke-miterlimit="10"/></g><g transform="translate(5,5) scale(1,1)"><path fill="none" stroke="#000000" d="M 589 104 L 589 114 L 599 114 L 589 104" stroke-miterlimit="10"/></g><g transform="translate(5,5) scale(1,1)"><g><path fill="none" stroke="none"/><text fill="#000000" stroke="none" font-family="Arial" font-size="13px" font-style="normal" font-weight="normal" text-decoration="none" x="485" y="122">Please, do not</text><text fill="#000000" stroke="none" font-family="Arial" font-size="13px" font-style="normal" font-weight="normal" text-decoration="none" x="485" y="135">care about the</text><text fill="#000000" stroke="none" font-family="Arial" font-size="13px" font-style="normal" font-weight="normal" text-decoration="none" x="485" y="148">meaning of the</text><text fill="#000000" stroke="none" font-family="Arial" font-size="13px" font-style="normal" font-weight="normal" text-decoration="none" x="485" y="161">arrows by uml . I</text><text fill="#000000" stroke="none" font-family="Arial" font-size="13px" font-style="normal" font-weight="normal" text-decoration="none" x="485" y="174">have no idea what</text><text fill="#000000" stroke="none" font-family="Arial" font-size="13px" font-style="normal" font-weight="normal" text-decoration="none" x="485" y="187">the arrows mean</text><text fill="#000000" stroke="none" font-family="Arial" font-size="13px" font-style="normal" font-weight="normal" text-decoration="none" x="485" y="200">but only use them</text><text fill="#000000" stroke="none" font-family="Arial" font-size="13px" font-style="normal" font-weight="normal" text-decoration="none" x="485" y="213">for the order of</text><text fill="#000000" stroke="none" font-family="Arial" font-size="13px" font-style="normal" font-weight="normal" text-decoration="none" x="485" y="226">functions-calling.</text></g></g><g transform="translate(5,5) scale(1,1)"><path fill="#ffffff" stroke="none" d="M 464 1176 L 645 1176 L 655 1186 L 655 1225 L 464 1225 L 464 1176"/></g><g transform="translate(5,5) scale(1,1)"><path fill="none" stroke="#000000" d="M 464 1176 L 645 1176 L 655 1186 L 655 1225 L 464 1225 L 464 1176 L 464 1176" stroke-miterlimit="10"/></g><g transform="translate(5,5) scale(1,1)"><path fill="none" stroke="#000000" d="M 645 1176 L 645 1186 L 655 1186 L 645 1176" stroke-miterlimit="10"/></g><g transform="translate(5,5) scale(1,1)"><g><path fill="none" stroke="none"/><text fill="#000000" stroke="none" font-family="Arial" font-size="13px" font-style="normal" font-weight="normal" text-decoration="none" x="469" y="1194">Submit the surface to drm and</text><text fill="#000000" stroke="none" font-family="Arial" font-size="13px" font-style="normal" font-weight="normal" text-decoration="none" x="469" y="1207">waiting for vblank for</text><text fill="#000000" stroke="none" font-family="Arial" font-size="13px" font-style="normal" font-weight="normal" text-decoration="none" x="469" y="1220">drawing(page-flip).</text></g></g><g transform="translate(5,5) scale(1,1)"><path fill="none" stroke="#000000" d="M 463 1197 L 182 1186" stroke-miterlimit="10" stroke-dasharray="3"/></g><g transform="translate(5,5) scale(1,1)"><path fill="#ffffff" stroke="none" d="M 464 1232 L 645 1232 L 655 1242 L 655 1279 L 464 1279 L 464 1232"/></g><g transform="translate(5,5) scale(1,1)"><path fill="none" stroke="#000000" d="M 464 1232 L 645 1232 L 655 1242 L 655 1279 L 464 1279 L 464 1232 L 464 1232" stroke-miterlimit="10"/></g><g transform="translate(5,5) scale(1,1)"><path fill="none" stroke="#000000" d="M 645 1232 L 645 1242 L 655 1242 L 645 1232" stroke-miterlimit="10"/></g><g transform="translate(5,5) scale(1,1)"><g><path fill="none" stroke="none"/><text fill="#000000" stroke="none" font-family="Arial" font-size="13px" font-style="normal" font-weight="normal" text-decoration="none" x="469" y="1250">Receive this when the page-flip</text><text fill="#000000" stroke="none" font-family="Arial" font-size="13px" font-style="normal" font-weight="normal" text-decoration="none" x="469" y="1263">finished.</text></g></g><g transform="translate(5,5) scale(1,1)"><path fill="none" stroke="#000000" d="M 463 1248 L 189 1226" stroke-miterlimit="10" stroke-dasharray="3"/></g><g transform="translate(5,5) scale(1,1)"><path fill="#ffffff" stroke="none" d="M 464 672 L 645 672 L 655 682 L 655 727 L 464 727 L 464 672"/></g><g transform="translate(5,5) scale(1,1)"><path fill="none" stroke="#000000" d="M 464 672 L 645 672 L 655 682 L 655 727 L 464 727 L 464 672 L 464 672" stroke-miterlimit="10"/></g><g transform="translate(5,5) scale(1,1)"><path fill="none" stroke="#000000" d="M 645 672 L 645 682 L 655 682 L 645 672" stroke-miterlimit="10"/></g><g transform="translate(5,5) scale(1,1)"><g><path fill="none" stroke="none"/><text fill="#000000" stroke="none" font-family="Arial" font-size="13px" font-style="normal" font-weight="normal" text-decoration="none" x="469" y="690">attach assigns the given</text><text fill="#000000" stroke="none" font-family="Arial" font-size="13px" font-style="normal" font-weight="normal" text-decoration="none" x="469" y="703">wl_buffer as the pending</text><text fill="#000000" stroke="none" font-family="Arial" font-size="13px" font-style="normal" font-weight="normal" text-decoration="none" x="469" y="716">wl_buffer</text></g></g><g transform="translate(5,5) scale(1,1)"><path fill="#ffffff" stroke="none" d="M 464 752 L 645 752 L 655 762 L 655 857 L 464 857 L 464 752"/></g><g transform="translate(5,5) scale(1,1)"><path fill="none" stroke="#000000" d="M 464 752 L 645 752 L 655 762 L 655 857 L 464 857 L 464 752 L 464 752" stroke-miterlimit="10"/></g><g transform="translate(5,5) scale(1,1)"><path fill="none" stroke="#000000" d="M 645 752 L 645 762 L 655 762 L 645 752" stroke-miterlimit="10"/></g><g transform="translate(5,5) scale(1,1)"><g><path fill="none" stroke="none"/><text fill="#000000" stroke="none" font-family="Arial" font-size="13px" font-style="normal" font-weight="normal" text-decoration="none" x="469" y="770">describe the regions where the</text><text fill="#000000" stroke="none" font-family="Arial" font-size="13px" font-style="normal" font-weight="normal" text-decoration="none" x="469" y="783">pending</text></g></g><g transform="translate(5,5) scale(1,1)"><g><path fill="none" stroke="none"/><text fill="#000000" stroke="none" font-family="Arial" font-size="13px" font-style="normal" font-weight="normal" text-decoration="none" x="469" y="798">	buffer is different from the</text><text fill="#000000" stroke="none" font-family="Arial" font-size="13px" font-style="normal" font-weight="normal" text-decoration="none" x="469" y="811">current surface contents, and</text><text fill="#000000" stroke="none" font-family="Arial" font-size="13px" font-style="normal" font-weight="normal" text-decoration="none" x="469" y="824">where</text></g></g><g transform="translate(5,5) scale(1,1)"><g><path fill="none" stroke="none"/><text fill="#000000" stroke="none" font-family="Arial" font-size="13px" font-style="normal" font-weight="normal" text-decoration="none" x="469" y="839">	the surface therefore needs to</text><text fill="#000000" stroke="none" font-family="Arial" font-size="13px" font-style="normal" font-weight="normal" text-decoration="none" x="469" y="852">be repainted.</text></g></g><g transform="translate(5,5) scale(1,1)"><path fill="#ffffff" stroke="none" d="M 464 896 L 645 896 L 655 906 L 655 1027 L 464 1027 L 464 896"/></g><g transform="translate(5,5) scale(1,1)"><path fill="none" stroke="#000000" d="M 464 896 L 645 896 L 655 906 L 655 1027 L 464 1027 L 464 896 L 464 896" stroke-miterlimit="10"/></g><g transform="translate(5,5) scale(1,1)"><path fill="none" stroke="#000000" d="M 645 896 L 645 906 L 655 906 L 645 896" stroke-miterlimit="10"/></g><g transform="translate(5,5) scale(1,1)"><g><path fill="none" stroke="none"/><text fill="#000000" stroke="none" font-family="Arial" font-size="13px" font-style="normal" font-weight="normal" text-decoration="none" x="469" y="914">commit makes the pending</text><text fill="#000000" stroke="none" font-family="Arial" font-size="13px" font-style="normal" font-weight="normal" text-decoration="none" x="469" y="927">wl_buffer the new surface</text><text fill="#000000" stroke="none" font-family="Arial" font-size="13px" font-style="normal" font-weight="normal" text-decoration="none" x="469" y="940">contents, and the size of the</text><text fill="#000000" stroke="none" font-family="Arial" font-size="13px" font-style="normal" font-weight="normal" text-decoration="none" x="469" y="953">surface becomes the size</text><text fill="#000000" stroke="none" font-family="Arial" font-size="13px" font-style="normal" font-weight="normal" text-decoration="none" x="469" y="966">calculated from the wl_buffer</text></g></g><g transform="translate(5,5) scale(1,1)"><g><path fill="none" stroke="none"/></g></g><g transform="translate(5,5) scale(1,1)"><g><path fill="none" stroke="none"/><text fill="#000000" stroke="none" font-family="Arial" font-size="13px" font-style="normal" font-weight="normal" text-decoration="none" x="469" y="983">Committing a pending</text><text fill="#000000" stroke="none" font-family="Arial" font-size="13px" font-style="normal" font-weight="normal" text-decoration="none" x="469" y="996">wl_buffer allows the compositor</text><text fill="#000000" stroke="none" font-family="Arial" font-size="13px" font-style="normal" font-weight="normal" text-decoration="none" x="469" y="1009">to read the pixels in the</text><text fill="#000000" stroke="none" font-family="Arial" font-size="13px" font-style="normal" font-weight="normal" text-decoration="none" x="469" y="1022">wl_buffer.</text></g></g><g transform="translate(5,5) scale(1,1)"><path fill="#ffffff" stroke="none" d="M 464 520 L 645 520 L 655 530 L 655 625 L 464 625 L 464 520"/></g><g transform="translate(5,5) scale(1,1)"><path fill="none" stroke="#000000" d="M 464 520 L 645 520 L 655 530 L 655 625 L 464 625 L 464 520 L 464 520" stroke-miterlimit="10"/></g><g transform="translate(5,5) scale(1,1)"><path fill="none" stroke="#000000" d="M 645 520 L 645 530 L 655 530 L 645 520" stroke-miterlimit="10"/></g><g transform="translate(5,5) scale(1,1)"><g><path fill="none" stroke="none"/><text fill="#000000" stroke="none" font-family="Arial" font-size="13px" font-style="normal" font-weight="normal" text-decoration="none" x="469" y="538">Request a notification when it</text><text fill="#000000" stroke="none" font-family="Arial" font-size="13px" font-style="normal" font-weight="normal" text-decoration="none" x="469" y="551">is a good time start drawing a</text><text fill="#000000" stroke="none" font-family="Arial" font-size="13px" font-style="normal" font-weight="normal" text-decoration="none" x="469" y="564">new frame, by creating a frame</text><text fill="#000000" stroke="none" font-family="Arial" font-size="13px" font-style="normal" font-weight="normal" text-decoration="none" x="469" y="577">callback.</text></g></g><g transform="translate(5,5) scale(1,1)"><g><path fill="none" stroke="none"/></g></g><g transform="translate(5,5) scale(1,1)"><g><path fill="none" stroke="none"/><text fill="#000000" stroke="none" font-family="Arial" font-size="13px" font-style="normal" font-weight="normal" text-decoration="none" x="469" y="594">The frame request will take</text><text fill="#000000" stroke="none" font-family="Arial" font-size="13px" font-style="normal" font-weight="normal" text-decoration="none" x="469" y="607">effect on the next</text><text fill="#000000" stroke="none" font-family="Arial" font-size="13px" font-style="normal" font-weight="normal" text-decoration="none" x="469" y="620">wl_surface.commit.</text></g></g><g transform="translate(5,5) scale(1,1)"><path fill="none" stroke="#000000" d="M 463 589 L 295 616" stroke-miterlimit="10" stroke-dasharray="3"/></g><g transform="translate(5,5) scale(1,1)"><path fill="none" stroke="#000000" d="M 463 714 L 295 737" stroke-miterlimit="10" stroke-dasharray="3"/></g><g transform="translate(5,5) scale(1,1)"><path fill="none" stroke="#000000" d="M 463 812 L 295 824" stroke-miterlimit="10" stroke-dasharray="3"/></g><g transform="translate(5,5) scale(1,1)"><path fill="none" stroke="#000000" d="M 463 944 L 295 912" stroke-miterlimit="10" stroke-dasharray="3"/></g><g transform="translate(5,5) scale(1,1)"><path fill="none" stroke="#000000" d="M 541 627 L 288 1360" stroke-miterlimit="10" stroke-dasharray="3"/></g><g transform="translate(5,5) scale(1,1)"><path fill="none" stroke="#000000" d="M 452 111 L 138 111" stroke-miterlimit="10"/></g><g transform="translate(5,5) scale(1,1)"><path fill="#000000" stroke="none" d="M 148.16267485762415 106.79048224398402 L 138 111 L 148.16267485762415 115.20951775601598"/></g><g transform="translate(5,5) scale(1,1)"><path fill="none" stroke="#000000" d="M 148.16267485762415 106.79048224398402 L 138 111 L 148.16267485762415 115.20951775601598 L 148.16267485762415 106.79048224398402" stroke-miterlimit="10"/></g><g transform="translate(5,5) scale(1,1)"><g><path fill="none" stroke="none"/><text fill="#000000" stroke="none" font-family="Arial" font-size="13px" font-style="normal" font-weight="normal" text-decoration="none" x="214.5" y="127.5">1 : wl_display@get_registry</text></g></g><g transform="translate(5,5) scale(1,1)"><rect fill="#ffffff" stroke="none" x="125" y="111" width="13" height="73"/></g><g transform="translate(5,5) scale(1,1)"><path fill="none" stroke="#000000" d="M 125 111 L 138 111 L 138 184 L 125 184 L 125 111 Z Z" stroke-miterlimit="10"/></g><g transform="translate(5,5) scale(1,1)"><path fill="none" stroke="#000000" d="M 138 176 L 452 176" stroke-miterlimit="10" stroke-dasharray="3"/></g><g transform="translate(5,5) scale(1,1)"><path fill="none" stroke="#000000" d="M 441.83732514237585 180.209517756016 L 452 176 L 441.83732514237585 171.790482243984" stroke-miterlimit="10"/></g><g transform="translate(5,5) scale(1,1)"><g><path fill="none" stroke="none"/><text fill="#000000" stroke="none" font-family="Arial" font-size="13px" font-style="normal" font-weight="normal" text-decoration="none" x="180.726806640625" y="172.5">2 : wl_registry@global("wl_compositor")</text></g></g><g transform="translate(5,5) scale(1,1)"><path fill="none" stroke="#000000" d="M 452 208 L 138 208" stroke-miterlimit="10"/></g><g transform="translate(5,5) scale(1,1)"><path fill="#000000" stroke="none" d="M 148.16267485762415 203.790482243984 L 138 208 L 148.16267485762415 212.209517756016"/></g><g transform="translate(5,5) scale(1,1)"><path fill="none" stroke="#000000" d="M 148.16267485762415 203.790482243984 L 138 208 L 148.16267485762415 212.209517756016 L 148.16267485762415 203.790482243984" stroke-miterlimit="10"/></g><g transform="translate(5,5) scale(1,1)"><g><path fill="none" stroke="none"/><text fill="#000000" stroke="none" font-family="Arial" font-size="13px" font-style="normal" font-weight="normal" text-decoration="none" x="184.5" y="224.5">3 : wl_registry@bind("wl_compositor")</text></g></g><g transform="translate(5,5) scale(1,1)"><rect fill="#ffffff" stroke="none" x="125" y="208" width="13" height="28"/></g><g transform="translate(5,5) scale(1,1)"><path fill="none" stroke="#000000" d="M 125 208 L 138 208 L 138 236 L 125 236 L 125 208 Z Z" stroke-miterlimit="10"/></g><g transform="translate(5,5) scale(1,1)"><path fill="none" stroke="#000000" d="M 138 232 L 168 232 L 168 252 L 138 252" stroke-miterlimit="10"/></g><g transform="translate(5,5) scale(1,1)"><path fill="#000000" stroke="none" d="M 148.16267485762415 247.790482243984 L 138 252 L 148.16267485762415 256.209517756016"/></g><g transform="translate(5,5) scale(1,1)"><path fill="none" stroke="#000000" d="M 148.16267485762415 247.790482243984 L 138 252 L 148.16267485762415 256.209517756016 L 148.16267485762415 247.790482243984" stroke-miterlimit="10"/></g><g transform="translate(5,5) scale(1,1)"><g><path fill="none" stroke="none"/><text fill="#000000" stroke="none" font-family="Arial" font-size="13px" font-style="normal" font-weight="normal" text-decoration="none" x="181.5" y="247.5">4 : compositor_bind</text></g></g><g transform="translate(5,5) scale(1,1)"><rect fill="#ffffff" stroke="none" x="125" y="252" width="13" height="28"/></g><g transform="translate(5,5) scale(1,1)"><path fill="none" stroke="#000000" d="M 125 252 L 138 252 L 138 280 L 125 280 L 125 252 Z Z" stroke-miterlimit="10"/></g><g transform="translate(5,5) scale(1,1)"><path fill="none" stroke="#000000" d="M 452 304 L 138 304" stroke-miterlimit="10"/></g><g transform="translate(5,5) scale(1,1)"><path fill="#000000" stroke="none" d="M 148.16267485762415 299.790482243984 L 138 304 L 148.16267485762415 308.209517756016"/></g><g transform="translate(5,5) scale(1,1)"><path fill="none" stroke="#000000" d="M 148.16267485762415 299.790482243984 L 138 304 L 148.16267485762415 308.209517756016 L 148.16267485762415 299.790482243984" stroke-miterlimit="10"/></g><g transform="translate(5,5) scale(1,1)"><g><path fill="none" stroke="none"/><text fill="#000000" stroke="none" font-family="Arial" font-size="13px" font-style="normal" font-weight="normal" text-decoration="none" x="193.5" y="320.5">5 : wl_compositor@create_surface</text></g></g><g transform="translate(5,5) scale(1,1)"><rect fill="#ffffff" stroke="none" x="125" y="304" width="13" height="28"/></g><g transform="translate(5,5) scale(1,1)"><path fill="none" stroke="#000000" d="M 125 304 L 138 304 L 138 332 L 125 332 L 125 304 Z Z" stroke-miterlimit="10"/></g><g transform="translate(5,5) scale(1,1)"><path fill="none" stroke="#000000" d="M 138 328 L 168 328 L 168 348 L 138 348" stroke-miterlimit="10"/></g><g transform="translate(5,5) scale(1,1)"><path fill="#000000" stroke="none" d="M 148.16267485762415 343.790482243984 L 138 348 L 148.16267485762415 352.209517756016"/></g><g transform="translate(5,5) scale(1,1)"><path fill="none" stroke="#000000" d="M 148.16267485762415 343.790482243984 L 138 348 L 148.16267485762415 352.209517756016 L 148.16267485762415 343.790482243984" stroke-miterlimit="10"/></g><g transform="translate(5,5) scale(1,1)"><g><path fill="none" stroke="none"/><text fill="#000000" stroke="none" font-family="Arial" font-size="13px" font-style="normal" font-weight="normal" text-decoration="none" x="180.5" y="343.5">6 : compositor_create_surface</text></g></g><g transform="translate(5,5) scale(1,1)"><rect fill="#ffffff" stroke="none" x="125" y="348" width="13" height="28"/></g><g transform="translate(5,5) scale(1,1)"><path fill="none" stroke="#000000" d="M 125 348 L 138 348 L 138 376 L 125 376 L 125 348 Z Z" stroke-miterlimit="10"/></g><g transform="translate(5,5) scale(1,1)"><path fill="none" stroke="#000000" d="M 138 368 L 168 368 L 168 388 L 138 388" stroke-miterlimit="10"/></g><g transform="translate(5,5) scale(1,1)"><path fill="#000000" stroke="none" d="M 148.16267485762415 383.790482243984 L 138 388 L 148.16267485762415 392.209517756016"/></g><g transform="translate(5,5) scale(1,1)"><path fill="none" stroke="#000000" d="M 148.16267485762415 383.790482243984 L 138 388 L 148.16267485762415 392.209517756016 L 148.16267485762415 383.790482243984" stroke-miterlimit="10"/></g><g transform="translate(5,5) scale(1,1)"><g><path fill="none" stroke="none"/><text fill="#000000" stroke="none" font-family="Arial" font-size="13px" font-style="normal" font-weight="normal" text-decoration="none" x="182.5" y="383.5">7 : weston_surface_create</text></g></g><g transform="translate(5,5) scale(1,1)"><rect fill="#ffffff" stroke="none" x="125" y="388" width="13" height="28"/></g><g transform="translate(5,5) scale(1,1)"><path fill="none" stroke="#000000" d="M 125 388 L 138 388 L 138 416 L 125 416 L 125 388 Z Z" stroke-miterlimit="10"/></g><g transform="translate(5,5) scale(1,1)"><path fill="none" stroke="#000000" d="M 452 440 L 138 440" stroke-miterlimit="10"/></g><g transform="translate(5,5) scale(1,1)"><path fill="#000000" stroke="none" d="M 148.16267485762415 435.790482243984 L 138 440 L 148.16267485762415 444.209517756016"/></g><g transform="translate(5,5) scale(1,1)"><path fill="none" stroke="#000000" d="M 148.16267485762415 435.790482243984 L 138 440 L 148.16267485762415 444.209517756016 L 148.16267485762415 435.790482243984" stroke-miterlimit="10"/></g><g transform="translate(5,5) scale(1,1)"><g><path fill="none" stroke="none"/><text fill="#000000" stroke="none" font-family="Arial" font-size="13px" font-style="normal" font-weight="normal" text-decoration="none" x="205.5" y="456.5">8 : wl_registry@bind("wl_drm")</text></g></g><g transform="translate(5,5) scale(1,1)"><rect fill="#ffffff" stroke="none" x="125" y="440" width="13" height="28"/></g><g transform="translate(5,5) scale(1,1)"><path fill="none" stroke="#000000" d="M 125 440 L 138 440 L 138 468 L 125 468 L 125 440 Z Z" stroke-miterlimit="10"/></g><g transform="translate(5,5) scale(1,1)"><path fill="none" stroke="#000000" d="M 452 491 L 138 491" stroke-miterlimit="10"/></g><g transform="translate(5,5) scale(1,1)"><path fill="#000000" stroke="none" d="M 148.16267485762415 486.790482243984 L 138 491 L 148.16267485762415 495.209517756016"/></g><g transform="translate(5,5) scale(1,1)"><path fill="none" stroke="#000000" d="M 148.16267485762415 486.790482243984 L 138 491 L 148.16267485762415 495.209517756016 L 148.16267485762415 486.790482243984" stroke-miterlimit="10"/></g><g transform="translate(5,5) scale(1,1)"><g><path fill="none" stroke="none"/><text fill="#000000" stroke="none" font-family="Arial" font-size="13px" font-style="normal" font-weight="normal" text-decoration="none" x="185.242431640625" y="507.5">9 : wl_registry@bind("ivi_application")</text></g></g><g transform="translate(5,5) scale(1,1)"><rect fill="#ffffff" stroke="none" x="125" y="491" width="13" height="28"/></g><g transform="translate(5,5) scale(1,1)"><path fill="none" stroke="#000000" d="M 125 491 L 138 491 L 138 519 L 125 519 L 125 491 Z Z" stroke-miterlimit="10"/></g><g transform="translate(5,5) scale(1,1)"><path fill="none" stroke="#000000" d="M 452 533 L 138 533" stroke-miterlimit="10"/></g><g transform="translate(5,5) scale(1,1)"><path fill="#000000" stroke="none" d="M 148.16267485762415 528.790482243984 L 138 533 L 148.16267485762415 537.209517756016"/></g><g transform="translate(5,5) scale(1,1)"><path fill="none" stroke="#000000" d="M 148.16267485762415 528.790482243984 L 138 533 L 148.16267485762415 537.209517756016 L 148.16267485762415 528.790482243984" stroke-miterlimit="10"/></g><g transform="translate(5,5) scale(1,1)"><g><path fill="none" stroke="none"/><text fill="#000000" stroke="none" font-family="Arial" font-size="13px" font-style="normal" font-weight="normal" text-decoration="none" x="190.535888671875" y="549.5">10 : ivi_application@surface_create</text></g></g><g transform="translate(5,5) scale(1,1)"><rect fill="#ffffff" stroke="none" x="125" y="533" width="13" height="28"/></g><g transform="translate(5,5) scale(1,1)"><path fill="none" stroke="#000000" d="M 125 533 L 138 533 L 138 561 L 125 561 L 125 533 Z Z" stroke-miterlimit="10"/></g><g transform="translate(5,5) scale(1,1)"><path fill="none" stroke="#000000" d="M 138 552 L 168 552 L 168 572 L 138 572" stroke-miterlimit="10"/></g><g transform="translate(5,5) scale(1,1)"><path fill="#000000" stroke="none" d="M 148.16267485762415 567.790482243984 L 138 572 L 148.16267485762415 576.209517756016"/></g><g transform="translate(5,5) scale(1,1)"><path fill="none" stroke="#000000" d="M 148.16267485762415 567.790482243984 L 138 572 L 148.16267485762415 576.209517756016 L 148.16267485762415 567.790482243984" stroke-miterlimit="10"/></g><g transform="translate(5,5) scale(1,1)"><g><path fill="none" stroke="none"/><text fill="#000000" stroke="none" font-family="Arial" font-size="13px" font-style="normal" font-weight="normal" text-decoration="none" x="174.5" y="572.5">11 : weston_view_create</text></g></g><g transform="translate(5,5) scale(1,1)"><rect fill="#ffffff" stroke="none" x="125" y="572" width="13" height="28"/></g><g transform="translate(5,5) scale(1,1)"><path fill="none" stroke="#000000" d="M 125 572 L 138 572 L 138 600 L 125 600 L 125 572 Z Z" stroke-miterlimit="10"/></g><g transform="translate(5,5) scale(1,1)"><path fill="none" stroke="#000000" d="M 452 616 L 138 616" stroke-miterlimit="10"/></g><g transform="translate(5,5) scale(1,1)"><path fill="#000000" stroke="none" d="M 148.16267485762415 611.790482243984 L 138 616 L 148.16267485762415 620.209517756016"/></g><g transform="translate(5,5) scale(1,1)"><path fill="none" stroke="#000000" d="M 148.16267485762415 611.790482243984 L 138 616 L 148.16267485762415 620.209517756016 L 148.16267485762415 611.790482243984" stroke-miterlimit="10"/></g><g transform="translate(5,5) scale(1,1)"><g><path fill="none" stroke="none"/><text fill="#000000" stroke="none" font-family="Arial" font-size="13px" font-style="normal" font-weight="normal" text-decoration="none" x="166.5" y="632.5">12 : wl_surface@frame(wl_callback@frame)</text></g></g><g transform="translate(5,5) scale(1,1)"><rect fill="#ffffff" stroke="none" x="125" y="616" width="13" height="28"/></g><g transform="translate(5,5) scale(1,1)"><path fill="none" stroke="#000000" d="M 125 616 L 138 616 L 138 644 L 125 644 L 125 616 Z Z" stroke-miterlimit="10"/></g><g transform="translate(5,5) scale(1,1)"><path fill="none" stroke="#000000" d="M 138 632 L 168 632 L 168 652 L 138 652" stroke-miterlimit="10"/></g><g transform="translate(5,5) scale(1,1)"><path fill="#000000" stroke="none" d="M 148.16267485762415 647.790482243984 L 138 652 L 148.16267485762415 656.209517756016"/></g><g transform="translate(5,5) scale(1,1)"><path fill="none" stroke="#000000" d="M 148.16267485762415 647.790482243984 L 138 652 L 148.16267485762415 656.209517756016 L 148.16267485762415 647.790482243984" stroke-miterlimit="10"/></g><g transform="translate(5,5) scale(1,1)"><g><path fill="none" stroke="none"/><text fill="#000000" stroke="none" font-family="Arial" font-size="13px" font-style="normal" font-weight="normal" text-decoration="none" x="173.5" y="652.5">13 : surface_frame</text></g></g><g transform="translate(5,5) scale(1,1)"><rect fill="#ffffff" stroke="none" x="125" y="652" width="13" height="28"/></g><g transform="translate(5,5) scale(1,1)"><path fill="none" stroke="#000000" d="M 125 652 L 138 652 L 138 680 L 125 680 L 125 652 Z Z" stroke-miterlimit="10"/></g><g transform="translate(5,5) scale(1,1)"><path fill="none" stroke="#000000" d="M 452 696 L 138 696" stroke-miterlimit="10"/></g><g transform="translate(5,5) scale(1,1)"><path fill="#000000" stroke="none" d="M 148.16267485762415 691.790482243984 L 138 696 L 148.16267485762415 700.209517756016"/></g><g transform="translate(5,5) scale(1,1)"><path fill="none" stroke="#000000" d="M 148.16267485762415 691.790482243984 L 138 696 L 148.16267485762415 700.209517756016 L 148.16267485762415 691.790482243984" stroke-miterlimit="10"/></g><g transform="translate(5,5) scale(1,1)"><g><path fill="none" stroke="none"/><text fill="#000000" stroke="none" font-family="Arial" font-size="13px" font-style="normal" font-weight="normal" text-decoration="none" x="195.5" y="712.5">14 : wl_drm@create_prime_buffer</text></g></g><g transform="translate(5,5) scale(1,1)"><rect fill="#ffffff" stroke="none" x="125" y="696" width="13" height="28"/></g><g transform="translate(5,5) scale(1,1)"><path fill="none" stroke="#000000" d="M 125 696 L 138 696 L 138 724 L 125 724 L 125 696 Z Z" stroke-miterlimit="10"/></g><g transform="translate(5,5) scale(1,1)"><path fill="none" stroke="#000000" d="M 452 737 L 138 737" stroke-miterlimit="10"/></g><g transform="translate(5,5) scale(1,1)"><path fill="#000000" stroke="none" d="M 148.16267485762415 732.790482243984 L 138 737 L 148.16267485762415 741.209517756016"/></g><g transform="translate(5,5) scale(1,1)"><path fill="none" stroke="#000000" d="M 148.16267485762415 732.790482243984 L 138 737 L 148.16267485762415 741.209517756016 L 148.16267485762415 732.790482243984" stroke-miterlimit="10"/></g><g transform="translate(5,5) scale(1,1)"><g><path fill="none" stroke="none"/><text fill="#000000" stroke="none" font-family="Arial" font-size="13px" font-style="normal" font-weight="normal" text-decoration="none" x="195.5" y="753.5">15 : wl_surface@attach(wl_buffer)</text></g></g><g transform="translate(5,5) scale(1,1)"><rect fill="#ffffff" stroke="none" x="125" y="737" width="13" height="28"/></g><g transform="translate(5,5) scale(1,1)"><path fill="none" stroke="#000000" d="M 125 737 L 138 737 L 138 765 L 125 765 L 125 737 Z Z" stroke-miterlimit="10"/></g><g transform="translate(5,5) scale(1,1)"><path fill="none" stroke="#000000" d="M 138 760 L 168 760 L 168 780 L 138 780" stroke-miterlimit="10"/></g><g transform="translate(5,5) scale(1,1)"><path fill="#000000" stroke="none" d="M 148.16267485762415 775.790482243984 L 138 780 L 148.16267485762415 784.209517756016"/></g><g transform="translate(5,5) scale(1,1)"><path fill="none" stroke="#000000" d="M 148.16267485762415 775.790482243984 L 138 780 L 148.16267485762415 784.209517756016 L 148.16267485762415 775.790482243984" stroke-miterlimit="10"/></g><g transform="translate(5,5) scale(1,1)"><g><path fill="none" stroke="none"/><text fill="#000000" stroke="none" font-family="Arial" font-size="13px" font-style="normal" font-weight="normal" text-decoration="none" x="174.5" y="775.5">16 : surface_attach</text></g></g><g transform="translate(5,5) scale(1,1)"><rect fill="#ffffff" stroke="none" x="125" y="780" width="13" height="28"/></g><g transform="translate(5,5) scale(1,1)"><path fill="none" stroke="#000000" d="M 125 780 L 138 780 L 138 808 L 125 808 L 125 780 Z Z" stroke-miterlimit="10"/></g><g transform="translate(5,5) scale(1,1)"><path fill="none" stroke="#000000" d="M 452 824 L 138 824" stroke-miterlimit="10"/></g><g transform="translate(5,5) scale(1,1)"><path fill="#000000" stroke="none" d="M 148.16267485762415 819.790482243984 L 138 824 L 148.16267485762415 828.209517756016"/></g><g transform="translate(5,5) scale(1,1)"><path fill="none" stroke="#000000" d="M 148.16267485762415 819.790482243984 L 138 824 L 148.16267485762415 828.209517756016 L 148.16267485762415 819.790482243984" stroke-miterlimit="10"/></g><g transform="translate(5,5) scale(1,1)"><g><path fill="none" stroke="none"/><text fill="#000000" stroke="none" font-family="Arial" font-size="13px" font-style="normal" font-weight="normal" text-decoration="none" x="220.5" y="840.5">17 : wl_surface@damage</text></g></g><g transform="translate(5,5) scale(1,1)"><rect fill="#ffffff" stroke="none" x="125" y="824" width="13" height="32"/></g><g transform="translate(5,5) scale(1,1)"><path fill="none" stroke="#000000" d="M 125 824 L 138 824 L 138 856 L 125 856 L 125 824 Z Z" stroke-miterlimit="10"/></g><g transform="translate(5,5) scale(1,1)"><path fill="none" stroke="#000000" d="M 138 848 L 168 848 L 168 868 L 138 868" stroke-miterlimit="10"/></g><g transform="translate(5,5) scale(1,1)"><path fill="#000000" stroke="none" d="M 148.16267485762415 863.790482243984 L 138 868 L 148.16267485762415 872.209517756016"/></g><g transform="translate(5,5) scale(1,1)"><path fill="none" stroke="#000000" d="M 148.16267485762415 863.790482243984 L 138 868 L 148.16267485762415 872.209517756016 L 148.16267485762415 863.790482243984" stroke-miterlimit="10"/></g><g transform="translate(5,5) scale(1,1)"><g><path fill="none" stroke="none"/><text fill="#000000" stroke="none" font-family="Arial" font-size="13px" font-style="normal" font-weight="normal" text-decoration="none" x="174.5" y="860.5">18 : surface_damage</text></g></g><g transform="translate(5,5) scale(1,1)"><rect fill="#ffffff" stroke="none" x="125" y="868" width="13" height="28"/></g><g transform="translate(5,5) scale(1,1)"><path fill="none" stroke="#000000" d="M 125 868 L 138 868 L 138 896 L 125 896 L 125 868 Z Z" stroke-miterlimit="10"/></g><g transform="translate(5,5) scale(1,1)"><path fill="none" stroke="#000000" d="M 452 912 L 138 912" stroke-miterlimit="10"/></g><g transform="translate(5,5) scale(1,1)"><path fill="#000000" stroke="none" d="M 148.16267485762415 907.790482243984 L 138 912 L 148.16267485762415 916.209517756016"/></g><g transform="translate(5,5) scale(1,1)"><path fill="none" stroke="#000000" d="M 148.16267485762415 907.790482243984 L 138 912 L 148.16267485762415 916.209517756016 L 148.16267485762415 907.790482243984" stroke-miterlimit="10"/></g><g transform="translate(5,5) scale(1,1)"><g><path fill="none" stroke="none"/><text fill="#000000" stroke="none" font-family="Arial" font-size="13px" font-style="normal" font-weight="normal" text-decoration="none" x="222.5" y="928.5">19 : wl_surface@commit</text></g></g><g transform="translate(5,5) scale(1,1)"><rect fill="#ffffff" stroke="none" x="125" y="912" width="13" height="204"/></g><g transform="translate(5,5) scale(1,1)"><path fill="none" stroke="#000000" d="M 125 912 L 138 912 L 138 1116 L 125 1116 L 125 912 Z Z" stroke-miterlimit="10"/></g><g transform="translate(5,5) scale(1,1)"><path fill="none" stroke="#000000" d="M 138 936 L 168 936 L 168 956 L 145 956" stroke-miterlimit="10"/></g><g transform="translate(5,5) scale(1,1)"><path fill="#000000" stroke="none" d="M 155.16267485762415 951.790482243984 L 145 956 L 155.16267485762415 960.209517756016"/></g><g transform="translate(5,5) scale(1,1)"><path fill="none" stroke="#000000" d="M 155.16267485762415 951.790482243984 L 145 956 L 155.16267485762415 960.209517756016 L 155.16267485762415 951.790482243984" stroke-miterlimit="10"/></g><g transform="translate(5,5) scale(1,1)"><g><path fill="none" stroke="none"/><text fill="#000000" stroke="none" font-family="Arial" font-size="13px" font-style="normal" font-weight="normal" text-decoration="none" x="175.5" y="951.5">20 : surface_commit</text></g></g><g transform="translate(5,5) scale(1,1)"><rect fill="#ffffff" stroke="none" x="132" y="956" width="13" height="157"/></g><g transform="translate(5,5) scale(1,1)"><path fill="none" stroke="#000000" d="M 132 956 L 145 956 L 145 1113 L 132 1113 L 132 956 Z Z" stroke-miterlimit="10"/></g><g transform="translate(5,5) scale(1,1)"><path fill="none" stroke="#000000" d="M 145 976 L 175 976 L 175 996 L 152 996" stroke-miterlimit="10"/></g><g transform="translate(5,5) scale(1,1)"><path fill="#000000" stroke="none" d="M 162.16267485762415 991.790482243984 L 152 996 L 162.16267485762415 1000.209517756016"/></g><g transform="translate(5,5) scale(1,1)"><path fill="none" stroke="#000000" d="M 162.16267485762415 991.790482243984 L 152 996 L 162.16267485762415 1000.209517756016 L 162.16267485762415 991.790482243984" stroke-miterlimit="10"/></g><g transform="translate(5,5) scale(1,1)"><g><path fill="none" stroke="none"/><text fill="#000000" stroke="none" font-family="Arial" font-size="13px" font-style="normal" font-weight="normal" text-decoration="none" x="182.5" y="991.5">21 : weston_surface_commit</text></g></g><g transform="translate(5,5) scale(1,1)"><rect fill="#ffffff" stroke="none" x="139" y="996" width="13" height="114"/></g><g transform="translate(5,5) scale(1,1)"><path fill="none" stroke="#000000" d="M 139 996 L 152 996 L 152 1110 L 139 1110 L 139 996 Z Z" stroke-miterlimit="10"/></g><g transform="translate(5,5) scale(1,1)"><path fill="none" stroke="#000000" d="M 152 1016 L 182 1016 L 182 1036 L 159 1036" stroke-miterlimit="10"/></g><g transform="translate(5,5) scale(1,1)"><path fill="#000000" stroke="none" d="M 169.16267485762415 1031.7904822439841 L 159 1036 L 169.16267485762415 1040.2095177560159"/></g><g transform="translate(5,5) scale(1,1)"><path fill="none" stroke="#000000" d="M 169.16267485762415 1031.7904822439841 L 159 1036 L 169.16267485762415 1040.2095177560159 L 169.16267485762415 1031.7904822439841" stroke-miterlimit="10"/></g><g transform="translate(5,5) scale(1,1)"><g><path fill="none" stroke="none"/><text fill="#000000" stroke="none" font-family="Arial" font-size="13px" font-style="normal" font-weight="normal" text-decoration="none" x="188.5" y="1031.5">22 : weston_surface_schedule_repaint</text></g></g><g transform="translate(5,5) scale(1,1)"><rect fill="#ffffff" stroke="none" x="146" y="1036" width="13" height="71"/></g><g transform="translate(5,5) scale(1,1)"><path fill="none" stroke="#000000" d="M 146 1036 L 159 1036 L 159 1107 L 146 1107 L 146 1036 Z Z" stroke-miterlimit="10"/></g><g transform="translate(5,5) scale(1,1)"><path fill="none" stroke="#000000" d="M 159 1056 L 189 1056 L 189 1076 L 166 1076" stroke-miterlimit="10"/></g><g transform="translate(5,5) scale(1,1)"><path fill="#000000" stroke="none" d="M 176.16267485762415 1071.7904822439841 L 166 1076 L 176.16267485762415 1080.2095177560159"/></g><g transform="translate(5,5) scale(1,1)"><path fill="none" stroke="#000000" d="M 176.16267485762415 1071.7904822439841 L 166 1076 L 176.16267485762415 1080.2095177560159 L 176.16267485762415 1071.7904822439841" stroke-miterlimit="10"/></g><g transform="translate(5,5) scale(1,1)"><g><path fill="none" stroke="none"/><text fill="#000000" stroke="none" font-family="Arial" font-size="13px" font-style="normal" font-weight="normal" text-decoration="none" x="195.5" y="1068.5">23 : weston_output_schedule_repaint</text></g></g><g transform="translate(5,5) scale(1,1)"><rect fill="#ffffff" stroke="none" x="153" y="1076" width="13" height="28"/></g><g transform="translate(5,5) scale(1,1)"><path fill="none" stroke="#000000" d="M 153 1076 L 166 1076 L 166 1104 L 153 1104 L 153 1076 Z Z" stroke-miterlimit="10"/></g><g transform="translate(5,5) scale(1,1)"><path fill="none" stroke="#000000" d="M 166 1096 L 196 1096 L 196 1116 L 145 1116" stroke-miterlimit="10"/></g><g transform="translate(5,5) scale(1,1)"><path fill="#000000" stroke="none" d="M 155.16267485762415 1111.7904822439841 L 145 1116 L 155.16267485762415 1120.2095177560159"/></g><g transform="translate(5,5) scale(1,1)"><path fill="none" stroke="#000000" d="M 155.16267485762415 1111.7904822439841 L 145 1116 L 155.16267485762415 1120.2095177560159 L 155.16267485762415 1111.7904822439841" stroke-miterlimit="10"/></g><g transform="translate(5,5) scale(1,1)"><g><path fill="none" stroke="none"/><text fill="#000000" stroke="none" font-family="Arial" font-size="13px" font-style="normal" font-weight="normal" text-decoration="none" x="202.24462890625" y="1108.5">24 : idle_repaint</text></g></g><g transform="translate(5,5) scale(1,1)"><rect fill="#ffffff" stroke="none" x="132" y="1116" width="13" height="114"/></g><g transform="translate(5,5) scale(1,1)"><path fill="none" stroke="#000000" d="M 132 1116 L 145 1116 L 145 1230 L 132 1230 L 132 1116 Z Z" stroke-miterlimit="10"/></g><g transform="translate(5,5) scale(1,1)"><path fill="none" stroke="#000000" d="M 145 1136 L 175 1136 L 175 1156 L 152 1156" stroke-miterlimit="10"/></g><g transform="translate(5,5) scale(1,1)"><path fill="#000000" stroke="none" d="M 162.16267485762415 1151.7904822439841 L 152 1156 L 162.16267485762415 1160.2095177560159"/></g><g transform="translate(5,5) scale(1,1)"><path fill="none" stroke="#000000" d="M 162.16267485762415 1151.7904822439841 L 152 1156 L 162.16267485762415 1160.2095177560159 L 162.16267485762415 1151.7904822439841" stroke-miterlimit="10"/></g><g transform="translate(5,5) scale(1,1)"><g><path fill="none" stroke="none"/><text fill="#000000" stroke="none" font-family="Arial" font-size="13px" font-style="normal" font-weight="normal" text-decoration="none" x="181.5" y="1151.5">25 : drm_output_start_repaint_loop</text></g></g><g transform="translate(5,5) scale(1,1)"><rect fill="#ffffff" stroke="none" x="139" y="1156" width="13" height="71"/></g><g transform="translate(5,5) scale(1,1)"><path fill="none" stroke="#000000" d="M 139 1156 L 152 1156 L 152 1227 L 139 1227 L 139 1156 Z Z" stroke-miterlimit="10"/></g><g transform="translate(5,5) scale(1,1)"><path fill="none" stroke="#000000" d="M 152 1176 L 182 1176 L 182 1196 L 159 1196" stroke-miterlimit="10"/></g><g transform="translate(5,5) scale(1,1)"><path fill="#000000" stroke="none" d="M 169.16267485762415 1191.7904822439841 L 159 1196 L 169.16267485762415 1200.2095177560159"/></g><g transform="translate(5,5) scale(1,1)"><path fill="none" stroke="#000000" d="M 169.16267485762415 1191.7904822439841 L 159 1196 L 169.16267485762415 1200.2095177560159 L 169.16267485762415 1191.7904822439841" stroke-miterlimit="10"/></g><g transform="translate(5,5) scale(1,1)"><g><path fill="none" stroke="none"/><text fill="#000000" stroke="none" font-family="Arial" font-size="13px" font-style="normal" font-weight="normal" text-decoration="none" x="180.5" y="1188.5">26 : drmModePageFlip</text></g></g><g transform="translate(5,5) scale(1,1)"><rect fill="#ffffff" stroke="none" x="146" y="1196" width="13" height="28"/></g><g transform="translate(5,5) scale(1,1)"><path fill="none" stroke="#000000" d="M 146 1196 L 159 1196 L 159 1224 L 146 1224 L 146 1196 Z Z" stroke-miterlimit="10"/></g><g transform="translate(5,5) scale(1,1)"><path fill="none" stroke="#000000" d="M 159 1216 L 189 1216 L 189 1236 L 138 1236" stroke-miterlimit="10"/></g><g transform="translate(5,5) scale(1,1)"><path fill="#000000" stroke="none" d="M 148.16267485762415 1231.7904822439841 L 138 1236 L 148.16267485762415 1240.2095177560159"/></g><g transform="translate(5,5) scale(1,1)"><path fill="none" stroke="#000000" d="M 148.16267485762415 1231.7904822439841 L 138 1236 L 148.16267485762415 1240.2095177560159 L 148.16267485762415 1231.7904822439841" stroke-miterlimit="10"/></g><g transform="translate(5,5) scale(1,1)"><g><path fill="none" stroke="none"/><text fill="#000000" stroke="none" font-family="Arial" font-size="13px" font-style="normal" font-weight="normal" text-decoration="none" x="195.5" y="1231.5">27 : page_flip_handler</text></g></g><g transform="translate(5,5) scale(1,1)"><rect fill="#ffffff" stroke="none" x="125" y="1236" width="13" height="116"/></g><g transform="translate(5,5) scale(1,1)"><path fill="none" stroke="#000000" d="M 125 1236 L 138 1236 L 138 1352 L 125 1352 L 125 1236 Z Z" stroke-miterlimit="10"/></g><g transform="translate(5,5) scale(1,1)"><path fill="none" stroke="#000000" d="M 138 1256 L 168 1256 L 168 1276 L 145 1276" stroke-miterlimit="10"/></g><g transform="translate(5,5) scale(1,1)"><path fill="#000000" stroke="none" d="M 155.16267485762415 1271.7904822439841 L 145 1276 L 155.16267485762415 1280.2095177560159"/></g><g transform="translate(5,5) scale(1,1)"><path fill="none" stroke="#000000" d="M 155.16267485762415 1271.7904822439841 L 145 1276 L 155.16267485762415 1280.2095177560159 L 155.16267485762415 1271.7904822439841" stroke-miterlimit="10"/></g><g transform="translate(5,5) scale(1,1)"><g><path fill="none" stroke="none"/><text fill="#000000" stroke="none" font-family="Arial" font-size="13px" font-style="normal" font-weight="normal" text-decoration="none" x="175.5" y="1271.5">28 : weston_output_finish_frame</text></g></g><g transform="translate(5,5) scale(1,1)"><rect fill="#ffffff" stroke="none" x="132" y="1276" width="13" height="71"/></g><g transform="translate(5,5) scale(1,1)"><path fill="none" stroke="#000000" d="M 132 1276 L 145 1276 L 145 1347 L 132 1347 L 132 1276 Z Z" stroke-miterlimit="10"/></g><g transform="translate(5,5) scale(1,1)"><path fill="none" stroke="#000000" d="M 145 1296 L 175 1296 L 175 1316 L 152 1316" stroke-miterlimit="10"/></g><g transform="translate(5,5) scale(1,1)"><path fill="#000000" stroke="none" d="M 162.16267485762415 1311.7904822439841 L 152 1316 L 162.16267485762415 1320.2095177560159"/></g><g transform="translate(5,5) scale(1,1)"><path fill="none" stroke="#000000" d="M 162.16267485762415 1311.7904822439841 L 152 1316 L 162.16267485762415 1320.2095177560159 L 162.16267485762415 1311.7904822439841" stroke-miterlimit="10"/></g><g transform="translate(5,5) scale(1,1)"><g><path fill="none" stroke="none"/><text fill="#000000" stroke="none" font-family="Arial" font-size="13px" font-style="normal" font-weight="normal" text-decoration="none" x="182.5" y="1308.5">29 : weston_output_schedule_repaint_reset</text></g></g><g transform="translate(5,5) scale(1,1)"><rect fill="#ffffff" stroke="none" x="139" y="1316" width="13" height="28"/></g><g transform="translate(5,5) scale(1,1)"><path fill="none" stroke="#000000" d="M 139 1316 L 152 1316 L 152 1344 L 139 1344 L 139 1316 Z Z" stroke-miterlimit="10"/></g><g transform="translate(5,5) scale(1,1)"><path fill="none" stroke="#000000" d="M 132 1360 L 445 1360" stroke-miterlimit="10"/></g><g transform="translate(5,5) scale(1,1)"><path fill="#000000" stroke="none" d="M 434.83732514237585 1364.2095177560159 L 445 1360 L 434.83732514237585 1355.7904822439841"/></g><g transform="translate(5,5) scale(1,1)"><path fill="none" stroke="#000000" d="M 434.83732514237585 1364.2095177560159 L 445 1360 L 434.83732514237585 1355.7904822439841 L 434.83732514237585 1364.2095177560159" stroke-miterlimit="10"/></g><g transform="translate(5,5) scale(1,1)"><g><path fill="none" stroke="none"/><text fill="#000000" stroke="none" font-family="Arial" font-size="13px" font-style="normal" font-weight="normal" text-decoration="none" x="202.5" y="1356.5">30 : wl_callback@frame.done</text></g></g><g transform="translate(5,5) scale(1,1)"><rect fill="#ffffff" stroke="none" x="445" y="1360" width="13" height="28"/></g><g transform="translate(5,5) scale(1,1)"><path fill="none" stroke="#000000" d="M 445 1360 L 458 1360 L 458 1388 L 445 1388 L 445 1360 Z Z" stroke-miterlimit="10"/></g></g></svg>
