<svg version="1.1" xmlns="http://www.w3.org/2000/svg" xmlns:xlink="http://www.w3.org/1999/xlink" width="879" height="860"><defs/><g><g transform="translate(2,2) scale(1,1)"><path fill="none" stroke="#000000" d="M 8 8 L 867 8 L 867 848 L 8 848 L 8 8" stroke-miterlimit="10"/></g><g transform="translate(2,2) scale(1,1)"><path fill="#ffffff" stroke="none" d="M 8 8 L 8 30 L 148.998046875 30 L 159.998046875 19 L 159.998046875 8 L 8 8"/></g><g transform="translate(2,2) scale(1,1)"><path fill="none" stroke="#000000" d="M 8 8 L 8 30 L 148.998046875 30 L 159.998046875 19 L 159.998046875 8 L 8 8 L 8 8" stroke-miterlimit="10"/></g><g transform="translate(2,2) scale(1,1)"><g><path fill="none" stroke="none"/><text fill="#000000" stroke="none" font-family="Arial" font-size="13px" font-style="normal" font-weight="normal" text-decoration="none" x="78.97900390625" y="25.5">draw frame</text></g></g><g transform="translate(2,2) scale(1,1)"><g><path fill="none" stroke="none"/><text fill="#000000" stroke="none" font-family="Arial" font-size="13px" font-style="normal" font-weight="bold" text-decoration="none" x="13" y="25.5">interaction</text></g></g><g transform="translate(2,2) scale(1,1)"><rect fill="#C0C0C0" stroke="none" x="111" y="47" width="136.03173828125" height="39" opacity="0.2"/></g><g transform="translate(2,2) scale(1,1)"><rect fill="#ffffff" stroke="none" x="104" y="40" width="136.03173828125" height="39"/></g><g transform="translate(2,2) scale(1,1)"><path fill="none" stroke="#000000" d="M 104 40 L 240.03173828125 40 L 240.03173828125 79 L 104 79 L 104 40 Z Z" stroke-miterlimit="10"/></g><g transform="translate(2,2) scale(1,1)"><g><path fill="none" stroke="none"/><text fill="#000000" stroke="none" font-family="Arial" font-size="13px" font-style="normal" font-weight="bold" text-decoration="none" x="118.552734375" y="59.5">compositor_drm_c</text></g></g><g transform="translate(2,2) scale(1,1)"><path fill="none" stroke="#000000" d="M 173.5 80 L 173.5 738" stroke-miterlimit="10" stroke-dasharray="3"/></g><g transform="translate(2,2) scale(1,1)"><rect fill="#C0C0C0" stroke="none" x="351" y="47" width="71.736328125" height="39" opacity="0.2"/></g><g transform="translate(2,2) scale(1,1)"><rect fill="#ffffff" stroke="none" x="344" y="40" width="71.736328125" height="39"/></g><g transform="translate(2,2) scale(1,1)"><path fill="none" stroke="#000000" d="M 344 40 L 415.736328125 40 L 415.736328125 79 L 344 79 L 344 40 Z Z" stroke-miterlimit="10"/></g><g transform="translate(2,2) scale(1,1)"><g><path fill="none" stroke="none"/><text fill="#000000" stroke="none" font-family="Arial" font-size="13px" font-style="normal" font-weight="bold" text-decoration="none" x="365.0654296875" y="59.5">DRM</text></g></g><g transform="translate(2,2) scale(1,1)"><path fill="none" stroke="#000000" d="M 380.5 80 L 380.5 718" stroke-miterlimit="10" stroke-dasharray="3"/></g><g transform="translate(2,2) scale(1,1)"><rect fill="#C0C0C0" stroke="none" x="511" y="47" width="104.24267578125" height="39" opacity="0.2"/></g><g transform="translate(2,2) scale(1,1)"><rect fill="#ffffff" stroke="none" x="504" y="40" width="104.24267578125" height="39"/></g><g transform="translate(2,2) scale(1,1)"><path fill="none" stroke="#000000" d="M 504 40 L 608.24267578125 40 L 608.24267578125 79 L 504 79 L 504 40 Z Z" stroke-miterlimit="10"/></g><g transform="translate(2,2) scale(1,1)"><g><path fill="none" stroke="none"/><text fill="#000000" stroke="none" font-family="Arial" font-size="13px" font-style="normal" font-weight="bold" text-decoration="none" x="517.46728515625" y="59.5">compositor_c</text></g></g><g transform="translate(2,2) scale(1,1)"><path fill="none" stroke="#000000" d="M 557.5 80 L 557.5 844" stroke-miterlimit="10" stroke-dasharray="3"/></g><g transform="translate(2,2) scale(1,1)"><path fill="#ffffff" stroke="none" d="M 608 219 L 845 219 L 855 229 L 855 258 L 608 258 L 608 219"/></g><g transform="translate(2,2) scale(1,1)"><path fill="none" stroke="#000000" d="M 608 219 L 845 219 L 855 229 L 855 258 L 608 258 L 608 219 L 608 219" stroke-miterlimit="10"/></g><g transform="translate(2,2) scale(1,1)"><path fill="none" stroke="#000000" d="M 845 219 L 845 229 L 855 229 L 845 219" stroke-miterlimit="10"/></g><g transform="translate(2,2) scale(1,1)"><g><path fill="none" stroke="none"/><text fill="#000000" stroke="none" font-family="Arial" font-size="13px" font-style="normal" font-weight="normal" text-decoration="none" x="613" y="237">timer = refresh_msec - (now -</text><text fill="#000000" stroke="none" font-family="Arial" font-size="13px" font-style="normal" font-weight="normal" text-decoration="none" x="613" y="250">timespec_sub) - repaint_msec</text></g></g><g transform="translate(2,2) scale(1,1)"><path fill="#ffffff" stroke="none" d="M 608 267 L 845 267 L 855 277 L 855 290 L 608 290 L 608 267"/></g><g transform="translate(2,2) scale(1,1)"><path fill="none" stroke="#000000" d="M 608 267 L 845 267 L 855 277 L 855 290 L 608 290 L 608 267 L 608 267" stroke-miterlimit="10"/></g><g transform="translate(2,2) scale(1,1)"><path fill="none" stroke="#000000" d="M 845 267 L 845 277 L 855 277 L 845 267" stroke-miterlimit="10"/></g><g transform="translate(2,2) scale(1,1)"><g><path fill="none" stroke="none"/><text fill="#000000" stroke="none" font-family="Arial" font-size="13px" font-style="normal" font-weight="normal" text-decoration="none" x="613" y="285">refresh_msec = 1000ms / 60Hz</text></g></g><g transform="translate(2,2) scale(1,1)"><path fill="#ffffff" stroke="none" d="M 608 299 L 845 299 L 855 309 L 855 335 L 608 335 L 608 299"/></g><g transform="translate(2,2) scale(1,1)"><path fill="none" stroke="#000000" d="M 608 299 L 845 299 L 855 309 L 855 335 L 608 335 L 608 299 L 608 299" stroke-miterlimit="10"/></g><g transform="translate(2,2) scale(1,1)"><path fill="none" stroke="#000000" d="M 845 299 L 845 309 L 855 309 L 845 299" stroke-miterlimit="10"/></g><g transform="translate(2,2) scale(1,1)"><g><path fill="none" stroke="none"/><text fill="#000000" stroke="none" font-family="Arial" font-size="13px" font-style="normal" font-weight="normal" text-decoration="none" x="613" y="317">repaint_msec = 7ms</text><text fill="#000000" stroke="none" font-family="Arial" font-size="13px" font-style="normal" font-weight="normal" text-decoration="none" x="613" y="330">(DEFAULT_REPAINT_WINDOW)</text></g></g><g transform="translate(2,2) scale(1,1)"><path fill="#ffffff" stroke="none" d="M 640 472 L 845 472 L 855 482 L 855 495 L 640 495 L 640 472"/></g><g transform="translate(2,2) scale(1,1)"><path fill="none" stroke="#000000" d="M 640 472 L 845 472 L 855 482 L 855 495 L 640 495 L 640 472 L 640 472" stroke-miterlimit="10"/></g><g transform="translate(2,2) scale(1,1)"><path fill="none" stroke="#000000" d="M 845 472 L 845 482 L 855 482 L 845 472" stroke-miterlimit="10"/></g><g transform="translate(2,2) scale(1,1)"><g><path fill="none" stroke="none"/><text fill="#000000" stroke="none" font-family="Arial" font-size="13px" font-style="normal" font-weight="normal" text-decoration="none" x="645" y="490">prepare for the next frame</text></g></g><g transform="translate(2,2) scale(1,1)"><path fill="#ffffff" stroke="none" d="M 104 384 L 485 384 L 495 394 L 495 495 L 104 495 L 104 384"/></g><g transform="translate(2,2) scale(1,1)"><path fill="none" stroke="#000000" d="M 104 384 L 485 384 L 495 394 L 495 495 L 104 495 L 104 384 L 104 384" stroke-miterlimit="10"/></g><g transform="translate(2,2) scale(1,1)"><path fill="none" stroke="#000000" d="M 485 384 L 485 394 L 495 394 L 485 384" stroke-miterlimit="10"/></g><g transform="translate(2,2) scale(1,1)"><g><path fill="none" stroke="none"/><text fill="#000000" stroke="none" font-family="Arial" font-size="13px" font-style="normal" font-weight="normal" text-decoration="none" x="109" y="402">The whole sequence usually finished in 16.66ms(1000ms/60Hz).</text></g></g><g transform="translate(2,2) scale(1,1)"><g><path fill="none" stroke="none"/></g></g><g transform="translate(2,2) scale(1,1)"><g><path fill="none" stroke="none"/><text fill="#000000" stroke="none" font-family="Arial" font-size="13px" font-style="normal" font-weight="normal" text-decoration="none" x="109" y="419">Weston leave 7ms to be used by weston_output_repaint() before</text><text fill="#000000" stroke="none" font-family="Arial" font-size="13px" font-style="normal" font-weight="normal" text-decoration="none" x="109" y="432">VBlank.</text></g></g><g transform="translate(2,2) scale(1,1)"><g><path fill="none" stroke="none"/></g></g><g transform="translate(2,2) scale(1,1)"><g><path fill="none" stroke="none"/><text fill="#000000" stroke="none" font-family="Arial" font-size="13px" font-style="normal" font-weight="normal" text-decoration="none" x="109" y="449">So there may be about 9ms idle before weston_output_repaint().</text></g></g><g transform="translate(2,2) scale(1,1)"><g><path fill="none" stroke="none"/></g></g><g transform="translate(2,2) scale(1,1)"><g><path fill="none" stroke="none"/><text fill="#000000" stroke="none" font-family="Arial" font-size="13px" font-style="normal" font-weight="normal" text-decoration="none" x="109" y="466">And some more idle if weston_output_repaint() using less than</text><text fill="#000000" stroke="none" font-family="Arial" font-size="13px" font-style="normal" font-weight="normal" text-decoration="none" x="109" y="479">7ms.</text></g></g><g transform="translate(2,2) scale(1,1)"><path fill="#ffffff" stroke="none" d="M 25.5 88 L 30.5 88 Q 32 88 32 89.5 L 32 94.5 Q 32 96 30.5 96 L 25.5 96 Q 24 96 24 94.5 L 24 89.5 Q 24 88 25.5 88 Z"/></g><g transform="translate(2,2) scale(1,1)"><path fill="none" stroke="#000000" d="M 25.5 88 L 30.5 88 Q 32 88 32 89.5 L 32 94.5 Q 32 96 30.5 96 L 25.5 96 Q 24 96 24 94.5 L 24 89.5 Q 24 88 25.5 88 Z" stroke-miterlimit="10"/></g><g transform="translate(2,2) scale(1,1)"><path fill="#ffffff" stroke="none" d="M 41.5 336 L 46.5 336 Q 48 336 48 337.5 L 48 342.5 Q 48 344 46.5 344 L 41.5 344 Q 40 344 40 342.5 L 40 337.5 Q 40 336 41.5 336 Z"/></g><g transform="translate(2,2) scale(1,1)"><path fill="none" stroke="#000000" d="M 41.5 336 L 46.5 336 Q 48 336 48 337.5 L 48 342.5 Q 48 344 46.5 344 L 41.5 344 Q 40 344 40 342.5 L 40 337.5 Q 40 336 41.5 336 Z" stroke-miterlimit="10"/></g><g transform="translate(2,2) scale(1,1)"><path fill="#ffffff" stroke="none" d="M 41.5 368 L 46.5 368 Q 48 368 48 369.5 L 48 374.5 Q 48 376 46.5 376 L 41.5 376 Q 40 376 40 374.5 L 40 369.5 Q 40 368 41.5 368 Z"/></g><g transform="translate(2,2) scale(1,1)"><path fill="none" stroke="#000000" d="M 41.5 368 L 46.5 368 Q 48 368 48 369.5 L 48 374.5 Q 48 376 46.5 376 L 41.5 376 Q 40 376 40 374.5 L 40 369.5 Q 40 368 41.5 368 Z" stroke-miterlimit="10"/></g><g transform="translate(2,2) scale(1,1)"><path fill="#ffffff" stroke="none" d="M 41.5 608 L 46.5 608 Q 48 608 48 609.5 L 48 614.5 Q 48 616 46.5 616 L 41.5 616 Q 40 616 40 614.5 L 40 609.5 Q 40 608 41.5 608 Z"/></g><g transform="translate(2,2) scale(1,1)"><path fill="none" stroke="#000000" d="M 41.5 608 L 46.5 608 Q 48 608 48 609.5 L 48 614.5 Q 48 616 46.5 616 L 41.5 616 Q 40 616 40 614.5 L 40 609.5 Q 40 608 41.5 608 Z" stroke-miterlimit="10"/></g><g transform="translate(2,2) scale(1,1)"><path fill="#ffffff" stroke="none" d="M 25.5 720 L 30.5 720 Q 32 720 32 721.5 L 32 726.5 Q 32 728 30.5 728 L 25.5 728 Q 24 728 24 726.5 L 24 721.5 Q 24 720 25.5 720 Z"/></g><g transform="translate(2,2) scale(1,1)"><path fill="none" stroke="#000000" d="M 25.5 720 L 30.5 720 Q 32 720 32 721.5 L 32 726.5 Q 32 728 30.5 728 L 25.5 728 Q 24 728 24 726.5 L 24 721.5 Q 24 720 25.5 720 Z" stroke-miterlimit="10"/></g><g transform="translate(2,2) scale(1,1)"><path fill="none" stroke="#000000" d="M 28 97 L 28 719" stroke-miterlimit="10" stroke-dasharray="3"/></g><g transform="translate(2,2) scale(1,1)"><path fill="none" stroke="#000000" d="M 44 345 L 44 367" stroke-miterlimit="10" stroke-dasharray="3"/></g><g transform="translate(2,2) scale(1,1)"><path fill="none" stroke="#000000" d="M 44 377 L 44 607" stroke-miterlimit="10" stroke-dasharray="3"/></g><g transform="translate(2,2) scale(1,1)"><g><path fill="none" stroke="none"/><text fill="#000000" stroke="none" font-family="Arial" font-size="13px" font-style="normal" font-weight="normal" text-decoration="none" x="37" y="210">16.66ms</text></g></g><g transform="translate(2,2) scale(1,1)"><g><path fill="none" stroke="none"/><text fill="#000000" stroke="none" font-family="Arial" font-size="13px" font-style="normal" font-weight="normal" text-decoration="none" x="53" y="362">&lt; 9ms</text></g></g><g transform="translate(2,2) scale(1,1)"><g><path fill="none" stroke="none"/><text fill="#000000" stroke="none" font-family="Arial" font-size="13px" font-style="normal" font-weight="normal" text-decoration="none" x="53" y="466">7ms</text></g></g><g transform="translate(2,2) scale(1,1)"><path fill="#ffffff" stroke="none" d="M 41.5 640 L 46.5 640 Q 48 640 48 641.5 L 48 646.5 Q 48 648 46.5 648 L 41.5 648 Q 40 648 40 646.5 L 40 641.5 Q 40 640 41.5 640 Z"/></g><g transform="translate(2,2) scale(1,1)"><path fill="none" stroke="#000000" d="M 41.5 640 L 46.5 640 Q 48 640 48 641.5 L 48 646.5 Q 48 648 46.5 648 L 41.5 648 Q 40 648 40 646.5 L 40 641.5 Q 40 640 41.5 640 Z" stroke-miterlimit="10"/></g><g transform="translate(2,2) scale(1,1)"><g><path fill="none" stroke="none"/><text fill="#000000" stroke="none" font-family="Arial" font-size="13px" font-style="normal" font-weight="normal" text-decoration="none" x="53" y="634">VBLANK(&lt;1ms)</text></g></g><g transform="translate(2,2) scale(1,1)"><path fill="#ffffff" stroke="none" d="M 104 512 L 349 512 L 359 522 L 359 604 L 104 604 L 104 512"/></g><g transform="translate(2,2) scale(1,1)"><path fill="none" stroke="#000000" d="M 104 512 L 349 512 L 359 522 L 359 604 L 104 604 L 104 512 L 104 512" stroke-miterlimit="10"/></g><g transform="translate(2,2) scale(1,1)"><path fill="none" stroke="#000000" d="M 349 512 L 349 522 L 359 522 L 349 512" stroke-miterlimit="10"/></g><g transform="translate(2,2) scale(1,1)"><g><path fill="none" stroke="none"/><text fill="#000000" stroke="none" font-family="Arial" font-size="13px" font-style="normal" font-weight="normal" text-decoration="none" x="109" y="530">drmModePageFlip() should be called</text><text fill="#000000" stroke="none" font-family="Arial" font-size="13px" font-style="normal" font-weight="normal" text-decoration="none" x="109" y="543">within 7ms. </text></g></g><g transform="translate(2,2) scale(1,1)"><g><path fill="none" stroke="none"/><text fill="#000000" stroke="none" font-family="Arial" font-size="13px" font-style="normal" font-weight="normal" text-decoration="none" x="109" y="558">But the buffer-swap/page-flip action could</text><text fill="#000000" stroke="none" font-family="Arial" font-size="13px" font-style="normal" font-weight="normal" text-decoration="none" x="109" y="571">only be started during the VBLANK.</text></g></g><g transform="translate(2,2) scale(1,1)"><g><path fill="none" stroke="none"/><text fill="#000000" stroke="none" font-family="Arial" font-size="13px" font-style="normal" font-weight="normal" text-decoration="none" x="109" y="586">So there are idle between the two.</text></g></g><g transform="translate(2,2) scale(1,1)"><path fill="none" stroke="#000000" d="M 44 617 L 44 639" stroke-miterlimit="10" stroke-dasharray="3"/></g><g transform="translate(2,2) scale(1,1)"><path fill="#ffffff" stroke="none" d="M 632 16 L 845 16 L 855 26 L 855 95 L 632 95 L 632 16"/></g><g transform="translate(2,2) scale(1,1)"><path fill="none" stroke="#000000" d="M 632 16 L 845 16 L 855 26 L 855 95 L 632 95 L 632 16 L 632 16" stroke-miterlimit="10"/></g><g transform="translate(2,2) scale(1,1)"><path fill="none" stroke="#000000" d="M 845 16 L 845 26 L 855 26 L 845 16" stroke-miterlimit="10"/></g><g transform="translate(2,2) scale(1,1)"><g><path fill="none" stroke="none"/><text fill="#000000" stroke="none" font-family="Arial" font-size="13px" font-style="normal" font-weight="normal" text-decoration="none" x="637" y="34">Please, do not care about the</text><text fill="#000000" stroke="none" font-family="Arial" font-size="13px" font-style="normal" font-weight="normal" text-decoration="none" x="637" y="47">meaning of the arrows by uml . I</text><text fill="#000000" stroke="none" font-family="Arial" font-size="13px" font-style="normal" font-weight="normal" text-decoration="none" x="637" y="60">have no idea what the arrows mean</text><text fill="#000000" stroke="none" font-family="Arial" font-size="13px" font-style="normal" font-weight="normal" text-decoration="none" x="637" y="73">but only use them for the order of</text><text fill="#000000" stroke="none" font-family="Arial" font-size="13px" font-style="normal" font-weight="normal" text-decoration="none" x="637" y="86">functions-calling.</text></g></g><g transform="translate(2,2) scale(1,1)"><path fill="#ffffff" stroke="none" d="M 608 624 L 845 624 L 855 634 L 855 701 L 608 701 L 608 624"/></g><g transform="translate(2,2) scale(1,1)"><path fill="none" stroke="#000000" d="M 608 624 L 845 624 L 855 634 L 855 701 L 608 701 L 608 624 L 608 624" stroke-miterlimit="10"/></g><g transform="translate(2,2) scale(1,1)"><path fill="none" stroke="#000000" d="M 845 624 L 845 634 L 855 634 L 845 624" stroke-miterlimit="10"/></g><g transform="translate(2,2) scale(1,1)"><g><path fill="none" stroke="none"/><text fill="#000000" stroke="none" font-family="Arial" font-size="13px" font-style="normal" font-weight="normal" text-decoration="none" x="613" y="642">This timer is about 9ms. </text></g></g><g transform="translate(2,2) scale(1,1)"><g><path fill="none" stroke="none"/><text fill="#000000" stroke="none" font-family="Arial" font-size="13px" font-style="normal" font-weight="normal" text-decoration="none" x="613" y="657">But, if there is a new frame drawn. The</text><text fill="#000000" stroke="none" font-family="Arial" font-size="13px" font-style="normal" font-weight="normal" text-decoration="none" x="613" y="670">idle_repaint() would be triggered and the</text><text fill="#000000" stroke="none" font-family="Arial" font-size="13px" font-style="normal" font-weight="normal" text-decoration="none" x="613" y="683">timer would be updated before timeout.</text></g></g><g transform="translate(2,2) scale(1,1)"><path fill="none" stroke="#000000" d="M 173 88 L 203 88 L 203 108 L 179 108" stroke-miterlimit="10"/></g><g transform="translate(2,2) scale(1,1)"><path fill="#000000" stroke="none" d="M 189.16267485762415 103.79048224398402 L 179 108 L 189.16267485762415 112.20951775601598"/></g><g transform="translate(2,2) scale(1,1)"><path fill="none" stroke="#000000" d="M 189.16267485762415 103.79048224398402 L 179 108 L 189.16267485762415 112.20951775601598 L 189.16267485762415 103.79048224398402" stroke-miterlimit="10"/></g><g transform="translate(2,2) scale(1,1)"><g><path fill="none" stroke="none"/><text fill="#000000" stroke="none" font-family="Arial" font-size="13px" font-style="normal" font-weight="normal" text-decoration="none" x="207.5" y="103.5">1 : idle_repaint</text></g></g><g transform="translate(2,2) scale(1,1)"><rect fill="#ffffff" stroke="none" x="166" y="108" width="13" height="231"/></g><g transform="translate(2,2) scale(1,1)"><path fill="none" stroke="#000000" d="M 166 108 L 179 108 L 179 339 L 166 339 L 166 108 Z Z" stroke-miterlimit="10"/></g><g transform="translate(2,2) scale(1,1)"><path fill="none" stroke="#000000" d="M 179 120 L 209 120 L 209 140 L 186 140" stroke-miterlimit="10"/></g><g transform="translate(2,2) scale(1,1)"><path fill="#000000" stroke="none" d="M 196.16267485762415 135.790482243984 L 186 140 L 196.16267485762415 144.209517756016"/></g><g transform="translate(2,2) scale(1,1)"><path fill="none" stroke="#000000" d="M 196.16267485762415 135.790482243984 L 186 140 L 196.16267485762415 144.209517756016 L 196.16267485762415 135.790482243984" stroke-miterlimit="10"/></g><g transform="translate(2,2) scale(1,1)"><g><path fill="none" stroke="none"/><text fill="#000000" stroke="none" font-family="Arial" font-size="13px" font-style="normal" font-weight="normal" text-decoration="none" x="214.5" y="135.5">2 : drm_output_start_repaint_loop</text></g></g><g transform="translate(2,2) scale(1,1)"><rect fill="#ffffff" stroke="none" x="173" y="140" width="13" height="196"/></g><g transform="translate(2,2) scale(1,1)"><path fill="none" stroke="#000000" d="M 173 140 L 186 140 L 186 336 L 173 336 L 173 140 Z Z" stroke-miterlimit="10"/></g><g transform="translate(2,2) scale(1,1)"><path fill="none" stroke="#000000" d="M 186 160 L 373 160" stroke-miterlimit="10"/></g><g transform="translate(2,2) scale(1,1)"><path fill="#000000" stroke="none" d="M 362.83732514237585 164.209517756016 L 373 160 L 362.83732514237585 155.790482243984"/></g><g transform="translate(2,2) scale(1,1)"><path fill="none" stroke="#000000" d="M 362.83732514237585 164.209517756016 L 373 160 L 362.83732514237585 155.790482243984 L 362.83732514237585 164.209517756016" stroke-miterlimit="10"/></g><g transform="translate(2,2) scale(1,1)"><g><path fill="none" stroke="none"/><text fill="#000000" stroke="none" font-family="Arial" font-size="13px" font-style="normal" font-weight="normal" text-decoration="none" x="225.5" y="156.5">3 : drmWaitVBlank</text></g></g><g transform="translate(2,2) scale(1,1)"><rect fill="#ffffff" stroke="none" x="373" y="160" width="13" height="28"/></g><g transform="translate(2,2) scale(1,1)"><path fill="none" stroke="#000000" d="M 373 160 L 386 160 L 386 188 L 373 188 L 373 160 Z Z" stroke-miterlimit="10"/></g><g transform="translate(2,2) scale(1,1)"><path fill="none" stroke="#000000" d="M 373 176 L 186 176" stroke-miterlimit="10" stroke-dasharray="3"/></g><g transform="translate(2,2) scale(1,1)"><path fill="none" stroke="#000000" d="M 196.16267485762415 171.790482243984 L 186 176 L 196.16267485762415 180.209517756016" stroke-miterlimit="10"/></g><g transform="translate(2,2) scale(1,1)"><g><path fill="none" stroke="none"/><text fill="#000000" stroke="none" font-family="Arial" font-size="13px" font-style="normal" font-weight="normal" text-decoration="none" x="180.94091796875" y="192.5">4 : get vblank msc and timestamp</text></g></g><g transform="translate(2,2) scale(1,1)"><path fill="none" stroke="#000000" d="M 186 224 L 550 224" stroke-miterlimit="10"/></g><g transform="translate(2,2) scale(1,1)"><path fill="#000000" stroke="none" d="M 539.8373251423759 228.209517756016 L 550 224 L 539.8373251423758 219.790482243984"/></g><g transform="translate(2,2) scale(1,1)"><path fill="none" stroke="#000000" d="M 539.8373251423759 228.209517756016 L 550 224 L 539.8373251423758 219.790482243984 L 539.8373251423759 228.209517756016" stroke-miterlimit="10"/></g><g transform="translate(2,2) scale(1,1)"><g><path fill="none" stroke="none"/><text fill="#000000" stroke="none" font-family="Arial" font-size="13px" font-style="normal" font-weight="normal" text-decoration="none" x="228.5" y="220.5">5 : weston_compositor_read_presentation_clock</text></g></g><g transform="translate(2,2) scale(1,1)"><rect fill="#ffffff" stroke="none" x="550" y="224" width="13" height="28"/></g><g transform="translate(2,2) scale(1,1)"><path fill="none" stroke="#000000" d="M 550 224 L 563 224 L 563 252 L 550 252 L 550 224 Z Z" stroke-miterlimit="10"/></g><g transform="translate(2,2) scale(1,1)"><path fill="none" stroke="#000000" d="M 550 248 L 186 248" stroke-miterlimit="10" stroke-dasharray="3"/></g><g transform="translate(2,2) scale(1,1)"><path fill="none" stroke="#000000" d="M 196.16267485762415 243.790482243984 L 186 248 L 196.16267485762415 252.209517756016" stroke-miterlimit="10"/></g><g transform="translate(2,2) scale(1,1)"><g><path fill="none" stroke="none"/><text fill="#000000" stroke="none" font-family="Arial" font-size="13px" font-style="normal" font-weight="normal" text-decoration="none" x="268.5" y="264.5">6 : get current msc and timestamp</text></g></g><g transform="translate(2,2) scale(1,1)"><path fill="none" stroke="#000000" d="M 186 280 L 216 280 L 216 300 L 193 300" stroke-miterlimit="10"/></g><g transform="translate(2,2) scale(1,1)"><path fill="#000000" stroke="none" d="M 203.16267485762415 295.790482243984 L 193 300 L 203.16267485762415 304.209517756016"/></g><g transform="translate(2,2) scale(1,1)"><path fill="none" stroke="#000000" d="M 203.16267485762415 295.790482243984 L 193 300 L 203.16267485762415 304.209517756016 L 203.16267485762415 295.790482243984" stroke-miterlimit="10"/></g><g transform="translate(2,2) scale(1,1)"><g><path fill="none" stroke="none"/><text fill="#000000" stroke="none" font-family="Arial" font-size="13px" font-style="normal" font-weight="normal" text-decoration="none" x="230.5" y="295.5">7 : timespec_sub(current, vblank)</text></g></g><g transform="translate(2,2) scale(1,1)"><rect fill="#ffffff" stroke="none" x="180" y="300" width="13" height="28"/></g><g transform="translate(2,2) scale(1,1)"><path fill="none" stroke="#000000" d="M 180 300 L 193 300 L 193 328 L 180 328 L 180 300 Z Z" stroke-miterlimit="10"/></g><g transform="translate(2,2) scale(1,1)"><path fill="none" stroke="#000000" d="M 193 323 L 550 323" stroke-miterlimit="10"/></g><g transform="translate(2,2) scale(1,1)"><path fill="#000000" stroke="none" d="M 539.8373251423759 327.209517756016 L 550 323 L 539.8373251423758 318.790482243984"/></g><g transform="translate(2,2) scale(1,1)"><path fill="none" stroke="#000000" d="M 539.8373251423759 327.209517756016 L 550 323 L 539.8373251423758 318.790482243984 L 539.8373251423759 327.209517756016" stroke-miterlimit="10"/></g><g transform="translate(2,2) scale(1,1)"><g><path fill="none" stroke="none"/><text fill="#000000" stroke="none" font-family="Arial" font-size="13px" font-style="normal" font-weight="normal" text-decoration="none" x="236.5" y="319.5">8 : weston_output_finish_frame(timespec_sub)</text></g></g><g transform="translate(2,2) scale(1,1)"><rect fill="#ffffff" stroke="none" x="550" y="323" width="13" height="29"/></g><g transform="translate(2,2) scale(1,1)"><path fill="none" stroke="#000000" d="M 550 323 L 563 323 L 563 352 L 550 352 L 550 323 Z Z" stroke-miterlimit="10"/></g><g transform="translate(2,2) scale(1,1)"><path fill="none" stroke="#000000" d="M 563 339 L 593 339 L 593 359 L 563 359" stroke-miterlimit="10"/></g><g transform="translate(2,2) scale(1,1)"><path fill="#000000" stroke="none" d="M 573.1626748576241 354.790482243984 L 563 359 L 573.1626748576241 363.209517756016"/></g><g transform="translate(2,2) scale(1,1)"><path fill="none" stroke="#000000" d="M 573.1626748576241 354.790482243984 L 563 359 L 573.1626748576241 363.209517756016 L 573.1626748576241 354.790482243984" stroke-miterlimit="10"/></g><g transform="translate(2,2) scale(1,1)"><g><path fill="none" stroke="none"/><text fill="#000000" stroke="none" font-family="Arial" font-size="13px" font-style="normal" font-weight="normal" text-decoration="none" x="599.114990234375" y="354.5">9 : wl_event_source_timer_update</text></g></g><g transform="translate(2,2) scale(1,1)"><rect fill="#ffffff" stroke="none" x="550" y="359" width="13" height="245"/></g><g transform="translate(2,2) scale(1,1)"><path fill="none" stroke="#000000" d="M 550 359 L 563 359 L 563 604 L 550 604 L 550 359 Z Z" stroke-miterlimit="10"/></g><g transform="translate(2,2) scale(1,1)"><path fill="none" stroke="#000000" d="M 563 379 L 593 379 L 593 399 L 570 399" stroke-miterlimit="10"/></g><g transform="translate(2,2) scale(1,1)"><path fill="#000000" stroke="none" d="M 580.1626748576241 394.790482243984 L 570 399 L 580.1626748576241 403.209517756016"/></g><g transform="translate(2,2) scale(1,1)"><path fill="none" stroke="#000000" d="M 580.1626748576241 394.790482243984 L 570 399 L 580.1626748576241 403.209517756016 L 580.1626748576241 394.790482243984" stroke-miterlimit="10"/></g><g transform="translate(2,2) scale(1,1)"><g><path fill="none" stroke="none"/><text fill="#000000" stroke="none" font-family="Arial" font-size="13px" font-style="normal" font-weight="normal" text-decoration="none" x="600.5" y="394.5">10 : output_repaint_timer_handler</text></g></g><g transform="translate(2,2) scale(1,1)"><rect fill="#ffffff" stroke="none" x="557" y="399" width="13" height="202"/></g><g transform="translate(2,2) scale(1,1)"><path fill="none" stroke="#000000" d="M 557 399 L 570 399 L 570 601 L 557 601 L 557 399 Z Z" stroke-miterlimit="10"/></g><g transform="translate(2,2) scale(1,1)"><path fill="none" stroke="#000000" d="M 570 411 L 600 411 L 600 431 L 577 431" stroke-miterlimit="10"/></g><g transform="translate(2,2) scale(1,1)"><path fill="#000000" stroke="none" d="M 587.1626748576241 426.790482243984 L 577 431 L 587.1626748576241 435.209517756016"/></g><g transform="translate(2,2) scale(1,1)"><path fill="none" stroke="#000000" d="M 587.1626748576241 426.790482243984 L 577 431 L 587.1626748576241 435.209517756016 L 587.1626748576241 426.790482243984" stroke-miterlimit="10"/></g><g transform="translate(2,2) scale(1,1)"><g><path fill="none" stroke="none"/><text fill="#000000" stroke="none" font-family="Arial" font-size="13px" font-style="normal" font-weight="normal" text-decoration="none" x="605.5" y="426.5">11 : weston_output_repaint</text></g></g><g transform="translate(2,2) scale(1,1)"><rect fill="#ffffff" stroke="none" x="564" y="431" width="13" height="167"/></g><g transform="translate(2,2) scale(1,1)"><path fill="none" stroke="#000000" d="M 564 431 L 577 431 L 577 598 L 564 598 L 564 431 Z Z" stroke-miterlimit="10"/></g><g transform="translate(2,2) scale(1,1)"><path fill="none" stroke="#000000" d="M 577 451 L 607 451 L 607 471 L 584 471" stroke-miterlimit="10"/></g><g transform="translate(2,2) scale(1,1)"><path fill="#000000" stroke="none" d="M 594.1626748576241 466.790482243984 L 584 471 L 594.1626748576241 475.209517756016"/></g><g transform="translate(2,2) scale(1,1)"><path fill="none" stroke="#000000" d="M 594.1626748576241 466.790482243984 L 584 471 L 594.1626748576241 475.209517756016 L 594.1626748576241 466.790482243984" stroke-miterlimit="10"/></g><g transform="translate(2,2) scale(1,1)"><g><path fill="none" stroke="none"/><text fill="#000000" stroke="none" font-family="Arial" font-size="13px" font-style="normal" font-weight="normal" text-decoration="none" x="612.5" y="471.5">12 : compositor_accumulate_damage</text></g></g><g transform="translate(2,2) scale(1,1)"><rect fill="#ffffff" stroke="none" x="571" y="471" width="13" height="68"/></g><g transform="translate(2,2) scale(1,1)"><path fill="none" stroke="#000000" d="M 571 471 L 584 471 L 584 539 L 571 539 L 571 471 Z Z" stroke-miterlimit="10"/></g><g transform="translate(2,2) scale(1,1)"><path fill="none" stroke="#000000" d="M 584 488 L 614 488 L 614 508 L 591 508" stroke-miterlimit="10"/></g><g transform="translate(2,2) scale(1,1)"><path fill="#000000" stroke="none" d="M 601.1626748576241 503.790482243984 L 591 508 L 601.1626748576241 512.209517756016"/></g><g transform="translate(2,2) scale(1,1)"><path fill="none" stroke="#000000" d="M 601.1626748576241 503.790482243984 L 591 508 L 601.1626748576241 512.209517756016 L 601.1626748576241 503.790482243984" stroke-miterlimit="10"/></g><g transform="translate(2,2) scale(1,1)"><g><path fill="none" stroke="none"/><text fill="#000000" stroke="none" font-family="Arial" font-size="13px" font-style="normal" font-weight="normal" text-decoration="none" x="621.5" y="516.5">13 : surface_flush_damage</text></g></g><g transform="translate(2,2) scale(1,1)"><rect fill="#ffffff" stroke="none" x="578" y="508" width="13" height="28"/></g><g transform="translate(2,2) scale(1,1)"><path fill="none" stroke="#000000" d="M 578 508 L 591 508 L 591 536 L 578 536 L 578 508 Z Z" stroke-miterlimit="10"/></g><g transform="translate(2,2) scale(1,1)"><path fill="none" stroke="#000000" d="M 577 547 L 607 547 L 607 567 L 584 567" stroke-miterlimit="10"/></g><g transform="translate(2,2) scale(1,1)"><path fill="#000000" stroke="none" d="M 594.1626748576241 562.790482243984 L 584 567 L 594.1626748576241 571.209517756016"/></g><g transform="translate(2,2) scale(1,1)"><path fill="none" stroke="#000000" d="M 594.1626748576241 562.790482243984 L 584 567 L 594.1626748576241 571.209517756016 L 594.1626748576241 562.790482243984" stroke-miterlimit="10"/></g><g transform="translate(2,2) scale(1,1)"><g><path fill="none" stroke="none"/><text fill="#000000" stroke="none" font-family="Arial" font-size="13px" font-style="normal" font-weight="normal" text-decoration="none" x="613.5" y="562.5">14 : drm_output_repaint</text></g></g><g transform="translate(2,2) scale(1,1)"><rect fill="#ffffff" stroke="none" x="571" y="567" width="13" height="28"/></g><g transform="translate(2,2) scale(1,1)"><path fill="none" stroke="#000000" d="M 571 567 L 584 567 L 584 595 L 571 595 L 571 567 Z Z" stroke-miterlimit="10"/></g><g transform="translate(2,2) scale(1,1)"><path fill="none" stroke="#000000" d="M 571 587 L 386 587" stroke-miterlimit="10"/></g><g transform="translate(2,2) scale(1,1)"><path fill="#000000" stroke="none" d="M 396.16267485762415 582.790482243984 L 386 587 L 396.16267485762415 591.209517756016"/></g><g transform="translate(2,2) scale(1,1)"><path fill="none" stroke="#000000" d="M 396.16267485762415 582.790482243984 L 386 587 L 396.16267485762415 591.209517756016 L 396.16267485762415 582.790482243984" stroke-miterlimit="10"/></g><g transform="translate(2,2) scale(1,1)"><g><path fill="none" stroke="none"/><text fill="#000000" stroke="none" font-family="Arial" font-size="13px" font-style="normal" font-weight="normal" text-decoration="none" x="403.5" y="604.5">15 : drmModePageFlip</text></g></g><g transform="translate(2,2) scale(1,1)"><rect fill="#ffffff" stroke="none" x="373" y="587" width="13" height="37"/></g><g transform="translate(2,2) scale(1,1)"><path fill="none" stroke="#000000" d="M 373 587 L 386 587 L 386 624 L 373 624 L 373 587 Z Z" stroke-miterlimit="10"/></g><g transform="translate(2,2) scale(1,1)"><path fill="none" stroke="#000000" d="M 386 616 L 416 616 L 416 636 L 386 636" stroke-miterlimit="10"/></g><g transform="translate(2,2) scale(1,1)"><path fill="#000000" stroke="none" d="M 396.16267485762415 631.790482243984 L 386 636 L 396.16267485762415 640.209517756016"/></g><g transform="translate(2,2) scale(1,1)"><path fill="none" stroke="#000000" d="M 396.16267485762415 631.790482243984 L 386 636 L 396.16267485762415 640.209517756016 L 396.16267485762415 631.790482243984" stroke-miterlimit="10"/></g><g transform="translate(2,2) scale(1,1)"><g><path fill="none" stroke="none"/><text fill="#000000" stroke="none" font-family="Arial" font-size="13px" font-style="normal" font-weight="normal" text-decoration="none" x="420.5" y="636.5">16 : bufferswap</text></g></g><g transform="translate(2,2) scale(1,1)"><rect fill="#ffffff" stroke="none" x="373" y="636" width="13" height="28"/></g><g transform="translate(2,2) scale(1,1)"><path fill="none" stroke="#000000" d="M 373 636 L 386 636 L 386 664 L 373 664 L 373 636 Z Z" stroke-miterlimit="10"/></g><g transform="translate(2,2) scale(1,1)"><path fill="none" stroke="#000000" d="M 373 656 L 179 656" stroke-miterlimit="10"/></g><g transform="translate(2,2) scale(1,1)"><path fill="#000000" stroke="none" d="M 189.16267485762415 651.790482243984 L 179 656 L 189.16267485762415 660.209517756016"/></g><g transform="translate(2,2) scale(1,1)"><path fill="none" stroke="#000000" d="M 189.16267485762415 651.790482243984 L 179 656 L 189.16267485762415 660.209517756016 L 189.16267485762415 651.790482243984" stroke-miterlimit="10"/></g><g transform="translate(2,2) scale(1,1)"><g><path fill="none" stroke="none"/><text fill="#000000" stroke="none" font-family="Arial" font-size="13px" font-style="normal" font-weight="normal" text-decoration="none" x="210.5" y="672.5">17 : page_flip_handler</text></g></g><g transform="translate(2,2) scale(1,1)"><rect fill="#ffffff" stroke="none" x="166" y="656" width="13" height="48"/></g><g transform="translate(2,2) scale(1,1)"><path fill="none" stroke="#000000" d="M 166 656 L 179 656 L 179 704 L 166 704 L 166 656 Z Z" stroke-miterlimit="10"/></g><g transform="translate(2,2) scale(1,1)"><path fill="none" stroke="#000000" d="M 563 712 L 593 712 L 593 732 L 563 732" stroke-miterlimit="10"/></g><g transform="translate(2,2) scale(1,1)"><path fill="#000000" stroke="none" d="M 573.1626748576241 727.790482243984 L 563 732 L 573.1626748576241 736.209517756016"/></g><g transform="translate(2,2) scale(1,1)"><path fill="none" stroke="#000000" d="M 573.1626748576241 727.790482243984 L 563 732 L 573.1626748576241 736.209517756016 L 573.1626748576241 727.790482243984" stroke-miterlimit="10"/></g><g transform="translate(2,2) scale(1,1)"><g><path fill="none" stroke="none"/><text fill="#000000" stroke="none" font-family="Arial" font-size="13px" font-style="normal" font-weight="normal" text-decoration="none" x="599.5" y="727.5">19 : wl_event_source_timer_update</text></g></g><g transform="translate(2,2) scale(1,1)"><rect fill="#ffffff" stroke="none" x="550" y="732" width="13" height="98"/></g><g transform="translate(2,2) scale(1,1)"><path fill="none" stroke="#000000" d="M 550 732 L 563 732 L 563 830 L 550 830 L 550 732 Z Z" stroke-miterlimit="10"/></g><g transform="translate(2,2) scale(1,1)"><path fill="none" stroke="#000000" d="M 179 696 L 550 696" stroke-miterlimit="10"/></g><g transform="translate(2,2) scale(1,1)"><path fill="#000000" stroke="none" d="M 539.8373251423759 700.209517756016 L 550 696 L 539.8373251423758 691.790482243984"/></g><g transform="translate(2,2) scale(1,1)"><path fill="none" stroke="#000000" d="M 539.8373251423759 700.209517756016 L 550 696 L 539.8373251423758 691.790482243984 L 539.8373251423759 700.209517756016" stroke-miterlimit="10"/></g><g transform="translate(2,2) scale(1,1)"><g><path fill="none" stroke="none"/><text fill="#000000" stroke="none" font-family="Arial" font-size="13px" font-style="normal" font-weight="normal" text-decoration="none" x="270.5" y="692.5">18 : weston_output_finish_frame</text></g></g><g transform="translate(2,2) scale(1,1)"><rect fill="#ffffff" stroke="none" x="550" y="696" width="13" height="28"/></g><g transform="translate(2,2) scale(1,1)"><path fill="none" stroke="#000000" d="M 550 696 L 563 696 L 563 724 L 550 724 L 550 696 Z Z" stroke-miterlimit="10"/></g><g transform="translate(2,2) scale(1,1)"><path fill="none" stroke="#000000" d="M 563 744 L 593 744 L 593 764 L 570 764" stroke-miterlimit="10"/></g><g transform="translate(2,2) scale(1,1)"><path fill="#000000" stroke="none" d="M 580.1626748576241 759.790482243984 L 570 764 L 580.1626748576241 768.209517756016"/></g><g transform="translate(2,2) scale(1,1)"><path fill="none" stroke="#000000" d="M 580.1626748576241 759.790482243984 L 570 764 L 580.1626748576241 768.209517756016 L 580.1626748576241 759.790482243984" stroke-miterlimit="10"/></g><g transform="translate(2,2) scale(1,1)"><g><path fill="none" stroke="none"/><text fill="#000000" stroke="none" font-family="Arial" font-size="13px" font-style="normal" font-weight="normal" text-decoration="none" x="599.5" y="759.5">20 : output_repaint_timer_handler</text></g></g><g transform="translate(2,2) scale(1,1)"><rect fill="#ffffff" stroke="none" x="557" y="764" width="13" height="63"/></g><g transform="translate(2,2) scale(1,1)"><path fill="none" stroke="#000000" d="M 557 764 L 570 764 L 570 827 L 557 827 L 557 764 Z Z" stroke-miterlimit="10"/></g><g transform="translate(2,2) scale(1,1)"><path fill="none" stroke="#000000" d="M 570 776 L 600 776 L 600 796 L 577 796" stroke-miterlimit="10"/></g><g transform="translate(2,2) scale(1,1)"><path fill="#000000" stroke="none" d="M 587.1626748576241 791.790482243984 L 577 796 L 587.1626748576241 800.209517756016"/></g><g transform="translate(2,2) scale(1,1)"><path fill="none" stroke="#000000" d="M 587.1626748576241 791.790482243984 L 577 796 L 587.1626748576241 800.209517756016 L 587.1626748576241 791.790482243984" stroke-miterlimit="10"/></g><g transform="translate(2,2) scale(1,1)"><g><path fill="none" stroke="none"/><text fill="#000000" stroke="none" font-family="Arial" font-size="13px" font-style="normal" font-weight="normal" text-decoration="none" x="606.5" y="791.5">21 : weston_output_schedule_repaint_reset</text></g></g><g transform="translate(2,2) scale(1,1)"><rect fill="#ffffff" stroke="none" x="564" y="796" width="13" height="28"/></g><g transform="translate(2,2) scale(1,1)"><path fill="none" stroke="#000000" d="M 564 796 L 577 796 L 577 824 L 564 824 L 564 796 Z Z" stroke-miterlimit="10"/></g></g></svg>
