<svg version="1.1" xmlns="http://www.w3.org/2000/svg" xmlns:xlink="http://www.w3.org/1999/xlink" width="584" height="460"><defs/><g><g transform="translate(-49,-30) scale(1,1)"><rect fill="#C0C0C0" stroke="none" x="66" y="47" width="46.4599609375" height="39" opacity="0.2"/></g><g transform="translate(-49,-30) scale(1,1)"><rect fill="#ffffff" stroke="none" x="59" y="40" width="46.4599609375" height="39"/></g><g transform="translate(-49,-30) scale(1,1)"><path fill="none" stroke="#000000" d="M 59 40 L 105.4599609375 40 L 105.4599609375 79 L 59 79 L 59 40 Z Z" stroke-miterlimit="10"/></g><g transform="translate(-49,-30) scale(1,1)"><g><path fill="none" stroke="none"/><text fill="#000000" stroke="none" font-family="Arial" font-size="13px" font-style="normal" font-weight="bold" text-decoration="none" x="69.58544921875" y="59.5">user</text></g></g><g transform="translate(-49,-30) scale(1,1)"><path fill="none" stroke="#000000" d="M 83.5 80 L 83.5 480" stroke-miterlimit="10" stroke-dasharray="3"/></g><g transform="translate(-49,-30) scale(1,1)"><rect fill="#C0C0C0" stroke="none" x="185" y="47" width="87.6181640625" height="39" opacity="0.2"/></g><g transform="translate(-49,-30) scale(1,1)"><rect fill="#ffffff" stroke="none" x="178" y="40" width="87.6181640625" height="39"/></g><g transform="translate(-49,-30) scale(1,1)"><path fill="none" stroke="#000000" d="M 178 40 L 265.6181640625 40 L 265.6181640625 79 L 178 79 L 178 40 Z Z" stroke-miterlimit="10"/></g><g transform="translate(-49,-30) scale(1,1)"><g><path fill="none" stroke="none"/><text fill="#000000" stroke="none" font-family="Arial" font-size="13px" font-style="normal" font-weight="bold" text-decoration="none" x="190.73095703125" y="59.5">application</text></g></g><g transform="translate(-49,-30) scale(1,1)"><path fill="none" stroke="#000000" d="M 222.5 80 L 222.5 480" stroke-miterlimit="10" stroke-dasharray="3"/></g><g transform="translate(-49,-30) scale(1,1)"><rect fill="#C0C0C0" stroke="none" x="356" y="47" width="98.47265625" height="39" opacity="0.2"/></g><g transform="translate(-49,-30) scale(1,1)"><rect fill="#ffffff" stroke="none" x="349" y="40" width="98.47265625" height="39"/></g><g transform="translate(-49,-30) scale(1,1)"><path fill="none" stroke="#000000" d="M 349 40 L 447.47265625 40 L 447.47265625 79 L 349 79 L 349 40 Z Z" stroke-miterlimit="10"/></g><g transform="translate(-49,-30) scale(1,1)"><g><path fill="none" stroke="none"/><text fill="#000000" stroke="none" font-family="Arial" font-size="13px" font-style="normal" font-weight="bold" text-decoration="none" x="361.378662109375" y="59.5">text backend</text></g></g><g transform="translate(-49,-30) scale(1,1)"><path fill="none" stroke="#000000" d="M 399.5 80 L 399.5 480" stroke-miterlimit="10" stroke-dasharray="3"/></g><g transform="translate(-49,-30) scale(1,1)"><rect fill="#C0C0C0" stroke="none" x="520" y="47" width="76.8017578125" height="39" opacity="0.2"/></g><g transform="translate(-49,-30) scale(1,1)"><rect fill="#ffffff" stroke="none" x="513" y="40" width="76.8017578125" height="39"/></g><g transform="translate(-49,-30) scale(1,1)"><path fill="none" stroke="#000000" d="M 513 40 L 589.8017578125 40 L 589.8017578125 79 L 513 79 L 513 40 Z Z" stroke-miterlimit="10"/></g><g transform="translate(-49,-30) scale(1,1)"><g><path fill="none" stroke="none"/><text fill="#000000" stroke="none" font-family="Arial" font-size="13px" font-style="normal" font-weight="bold" text-decoration="none" x="524.661376953125" y="59.5">keyboard</text></g></g><g transform="translate(-49,-30) scale(1,1)"><path fill="none" stroke="#000000" d="M 552.5 80 L 552.5 480" stroke-miterlimit="10" stroke-dasharray="3"/></g><g transform="translate(-49,-30) scale(1,1)"><path fill="none" stroke="#000000" d="M 128 136 L 623 136 L 623 456 L 128 456 L 128 136" stroke-miterlimit="10"/></g><g transform="translate(-49,-30) scale(1,1)"><path fill="#ffffff" stroke="none" d="M 128 136 L 128 158 L 257.45166015625 158 L 268.45166015625 147 L 268.45166015625 136 L 128 136"/></g><g transform="translate(-49,-30) scale(1,1)"><path fill="none" stroke="#000000" d="M 128 136 L 128 158 L 257.45166015625 158 L 268.45166015625 147 L 268.45166015625 136 L 128 136 L 128 136" stroke-miterlimit="10"/></g><g transform="translate(-49,-30) scale(1,1)"><g><path fill="none" stroke="none"/><text fill="#000000" stroke="none" font-family="Arial" font-size="13px" font-style="normal" font-weight="normal" text-decoration="none" x="152.72998046875" y="153.5">has preedit string</text></g></g><g transform="translate(-49,-30) scale(1,1)"><g><path fill="none" stroke="none"/><text fill="#000000" stroke="none" font-family="Arial" font-size="13px" font-style="normal" font-weight="bold" text-decoration="none" x="133" y="153.5">alt</text></g></g><g transform="translate(-49,-30) scale(1,1)"><path fill="none" stroke="#000000" d="M 128 289 L 623 289" stroke-miterlimit="10" stroke-dasharray="10,3"/></g><g transform="translate(-49,-30) scale(1,1)"><path fill="none" stroke="#000000" d="M 83 122 L 552 122" stroke-miterlimit="10"/></g><g transform="translate(-49,-30) scale(1,1)"><path fill="none" stroke="#000000" d="M 541.8373251423759 126.20951775601598 L 552 122 L 541.8373251423758 117.79048224398402" stroke-miterlimit="10"/></g><g transform="translate(-49,-30) scale(1,1)"><g><path fill="none" stroke="none"/><text fill="#000000" stroke="none" font-family="Arial" font-size="13px" font-style="normal" font-weight="normal" text-decoration="none" x="247.5" y="118.5">1 : touch backspace key</text></g></g><g transform="translate(-49,-30) scale(1,1)"><path fill="none" stroke="#000000" d="M 552 168 L 399 168" stroke-miterlimit="10"/></g><g transform="translate(-49,-30) scale(1,1)"><path fill="none" stroke="#000000" d="M 409.16267485762415 163.790482243984 L 399 168 L 409.16267485762415 172.209517756016" stroke-miterlimit="10"/></g><g transform="translate(-49,-30) scale(1,1)"><g><path fill="none" stroke="none"/><text fill="#000000" stroke="none" font-family="Arial" font-size="13px" font-style="normal" font-weight="normal" text-decoration="none" x="423.5" y="184.5">2 : preedit_cursor</text></g></g><g transform="translate(-49,-30) scale(1,1)"><path fill="none" stroke="#000000" d="M 399 192 L 222 192" stroke-miterlimit="10"/></g><g transform="translate(-49,-30) scale(1,1)"><path fill="none" stroke="#000000" d="M 232.16267485762415 187.790482243984 L 222 192 L 232.16267485762415 196.209517756016" stroke-miterlimit="10"/></g><g transform="translate(-49,-30) scale(1,1)"><g><path fill="none" stroke="none"/><text fill="#000000" stroke="none" font-family="Arial" font-size="13px" font-style="normal" font-weight="normal" text-decoration="none" x="258.5" y="208.5">3 : preedit_cursor</text></g></g><g transform="translate(-49,-30) scale(1,1)"><path fill="none" stroke="#000000" d="M 552 216 L 399 216" stroke-miterlimit="10"/></g><g transform="translate(-49,-30) scale(1,1)"><path fill="none" stroke="#000000" d="M 409.16267485762415 211.790482243984 L 399 216 L 409.16267485762415 220.209517756016" stroke-miterlimit="10"/></g><g transform="translate(-49,-30) scale(1,1)"><g><path fill="none" stroke="none"/><text fill="#000000" stroke="none" font-family="Arial" font-size="13px" font-style="normal" font-weight="normal" text-decoration="none" x="425.5" y="232.5">4 : preedit_string</text></g></g><g transform="translate(-49,-30) scale(1,1)"><path fill="none" stroke="#000000" d="M 399 240 L 222 240" stroke-miterlimit="10"/></g><g transform="translate(-49,-30) scale(1,1)"><path fill="none" stroke="#000000" d="M 232.16267485762415 235.790482243984 L 222 240 L 232.16267485762415 244.209517756016" stroke-miterlimit="10"/></g><g transform="translate(-49,-30) scale(1,1)"><g><path fill="none" stroke="none"/><text fill="#000000" stroke="none" font-family="Arial" font-size="13px" font-style="normal" font-weight="normal" text-decoration="none" x="260.5" y="256.5">5 : preedit_string</text></g></g><g transform="translate(-49,-30) scale(1,1)"><path fill="none" stroke="#000000" d="M 552 328 L 399 328" stroke-miterlimit="10"/></g><g transform="translate(-49,-30) scale(1,1)"><path fill="none" stroke="#000000" d="M 409.16267485762415 323.790482243984 L 399 328 L 409.16267485762415 332.209517756016" stroke-miterlimit="10"/></g><g transform="translate(-49,-30) scale(1,1)"><g><path fill="none" stroke="none"/><text fill="#000000" stroke="none" font-family="Arial" font-size="13px" font-style="normal" font-weight="normal" text-decoration="none" x="395.5" y="344.5">6 : delete_surrounding_text</text></g></g><g transform="translate(-49,-30) scale(1,1)"><path fill="none" stroke="#000000" d="M 399 360 L 222 360" stroke-miterlimit="10"/></g><g transform="translate(-49,-30) scale(1,1)"><path fill="none" stroke="#000000" d="M 232.16267485762415 355.790482243984 L 222 360 L 232.16267485762415 364.209517756016" stroke-miterlimit="10"/></g><g transform="translate(-49,-30) scale(1,1)"><g><path fill="none" stroke="none"/><text fill="#000000" stroke="none" font-family="Arial" font-size="13px" font-style="normal" font-weight="normal" text-decoration="none" x="230.5" y="376.5">7 : delete_surrounding_text</text></g></g><g transform="translate(-49,-30) scale(1,1)"><path fill="none" stroke="#000000" d="M 552 384 L 399 384" stroke-miterlimit="10"/></g><g transform="translate(-49,-30) scale(1,1)"><path fill="none" stroke="#000000" d="M 409.16267485762415 379.790482243984 L 399 384 L 409.16267485762415 388.209517756016" stroke-miterlimit="10"/></g><g transform="translate(-49,-30) scale(1,1)"><g><path fill="none" stroke="none"/><text fill="#000000" stroke="none" font-family="Arial" font-size="13px" font-style="normal" font-weight="normal" text-decoration="none" x="424.5" y="400.5">8 : commit_string</text></g></g><g transform="translate(-49,-30) scale(1,1)"><path fill="none" stroke="#000000" d="M 399 408 L 222 408" stroke-miterlimit="10"/></g><g transform="translate(-49,-30) scale(1,1)"><path fill="none" stroke="#000000" d="M 232.16267485762415 403.790482243984 L 222 408 L 232.16267485762415 412.209517756016" stroke-miterlimit="10"/></g><g transform="translate(-49,-30) scale(1,1)"><g><path fill="none" stroke="none"/><text fill="#000000" stroke="none" font-family="Arial" font-size="13px" font-style="normal" font-weight="normal" text-decoration="none" x="259.5" y="424.5">9 : commit_string</text></g></g></g></svg>
