<?xml version="1.0" encoding="UTF-8" standalone="no"?>
<!DOCTYPE svg PUBLIC "-//W3C//DTD SVG 1.1//EN" 
  "http://www.w3.org/Graphics/SVG/1.1/DTD/svg11.dtd">
<!-- Created with ASCIIToSVG (https://github.com/dhobsd/asciitosvg/) -->
<svg width="541px" height="160px" version="1.1"
  xmlns="http://www.w3.org/2000/svg" xmlns:xlink="http://www.w3.org/1999/xlink">
  <defs>
    <filter id="dsFilterNoBlur" width="150%" height="150%">
      <feOffset result="offOut" in="SourceGraphic" dx="3" dy="3"/>
      <feColorMatrix result="matrixOut" in="offOut" type="matrix" values="0.2 0 0 0 0 0 0.2 0 0 0 0 0 0.2 0 0 0 0 0 1 0"/>
      <feBlend in="SourceGraphic" in2="matrixOut" mode="normal"/>
    </filter>
    <filter id="dsFilter" width="150%" height="150%">
      <feOffset result="offOut" in="SourceGraphic" dx="3" dy="3"/>
      <feColorMatrix result="matrixOut" in="offOut" type="matrix" values="0.2 0 0 0 0 0 0.2 0 0 0 0 0 0.2 0 0 0 0 0 1 0"/>
      <feGaussianBlur result="blurOut" in="matrixOut" stdDeviation="3"/>
      <feBlend in="SourceGraphic" in2="blurOut" mode="normal"/>
    </filter>
    <marker id="iPointer"
      viewBox="0 0 10 10" refX="5" refY="5" 
      markerUnits="strokeWidth"
      markerWidth="8" markerHeight="7"
      fill="black"
      orient="auto">
      <path d="M 10 0 L 10 10 L 0 5 z" />
    </marker>
    <marker id="Pointer"
      viewBox="0 0 10 10" refX="5" refY="5" 
      markerUnits="strokeWidth"
      markerWidth="8" markerHeight="7"
      fill="black"
      orient="auto">
      <path d="M 0 0 L 10 5 L 0 10 z" />
    </marker>
  </defs><g id="boxes" stroke="black" stroke-width="2" fill="none" >
<g id="group0">
	<path id="path0" filter="url(#dsFilter)" fill="#fff" d="M 184.5 18 Q 184.5 8 194.5 8 L 336.5 8 Q 346.5 8 346.5 18 L 346.5 30 Q 346.5 40 336.5 40 L 194.5 40 Q 184.5 40 184.5 30 Z" />
	<text x="197.1" y="28.8" id="text0" fill="#000" stroke="none" style="font-family:Consolas,Monaco,Anonymous Pro,Anonymous,Bitstream Sans Mono,monospace;font-size:15.2px" >P2P Group Owner </text>

</g>
<g id="group8">
	<path id="path8" filter="url(#dsFilter)" fill="#fff" d="M 4.5 82 Q 4.5 72 14.5 72 L 156.5 72 Q 166.5 72 166.5 82 L 166.5 94 Q 166.5 104 156.5 104 L 14.5 104 Q 4.5 104 4.5 94 Z" />
	<text x="35.1" y="92.8" id="text1" fill="#000" stroke="none" style="font-family:Consolas,Monaco,Anonymous Pro,Anonymous,Bitstream Sans Mono,monospace;font-size:15.2px" >P2P Client </text>

</g>
<g id="group11">
	<path id="path11" filter="url(#dsFilter)" fill="#fff" d="M 364.5 82 Q 364.5 72 374.5 72 L 516.5 72 Q 526.5 72 526.5 82 L 526.5 94 Q 526.5 104 516.5 104 L 374.5 104 Q 364.5 104 364.5 94 Z" />
	<text x="395.1" y="92.8" id="text2" fill="#000" stroke="none" style="font-family:Consolas,Monaco,Anonymous Pro,Anonymous,Bitstream Sans Mono,monospace;font-size:15.2px" >P2P Client </text>

</g>
</g>
<g id="lines" stroke="black" stroke-width="2" fill="none" >
<g id="group116">
	<path id="path116" d="M 85.5 72 L 85.5 34 Q 85.5 24 95.5 24 L 184.5 24 L 184.5 18 Q 184.5 8 174.5 8 " />
</g>
<g id="group119">
	<path id="path119" d="M 85.5 104 L 85.5 126 Q 85.5 136 95.5 136 L 435.5 136 Q 445.5 136 445.5 126 L 445.5 104 " />
</g>
<g id="group405">
	<path id="path405" d="M 346.5 24 L 435.5 24 Q 445.5 24 445.5 34 L 445.5 72 " />
</g>
</g>
<g id="text" fill="black" style="font-family:Consolas,Monaco,Anonymous Pro,Anonymous,Bitstream Sans Mono,monospace;font-size:15.2px" >
</g>
</svg>
